G04 #@! TF.GenerationSoftware,KiCad,Pcbnew,8.0.0*
G04 #@! TF.CreationDate,2024-03-03T11:24:10+11:00*
G04 #@! TF.ProjectId,BatteryCharger,42617474-6572-4794-9368-61726765722e,rev?*
G04 #@! TF.SameCoordinates,Original*
G04 #@! TF.FileFunction,Copper,L2,Bot*
G04 #@! TF.FilePolarity,Positive*
%FSLAX46Y46*%
G04 Gerber Fmt 4.6, Leading zero omitted, Abs format (unit mm)*
G04 Created by KiCad (PCBNEW 8.0.0) date 2024-03-03 11:24:10*
%MOMM*%
%LPD*%
G01*
G04 APERTURE LIST*
G04 #@! TA.AperFunction,ComponentPad*
%ADD10R,2.400000X2.400000*%
G04 #@! TD*
G04 #@! TA.AperFunction,ComponentPad*
%ADD11C,2.400000*%
G04 #@! TD*
G04 #@! TA.AperFunction,WasherPad*
%ADD12C,5.000000*%
G04 #@! TD*
G04 #@! TA.AperFunction,ComponentPad*
%ADD13C,1.600000*%
G04 #@! TD*
G04 #@! TA.AperFunction,ComponentPad*
%ADD14O,1.600000X1.600000*%
G04 #@! TD*
G04 #@! TA.AperFunction,ComponentPad*
%ADD15R,1.905000X2.000000*%
G04 #@! TD*
G04 #@! TA.AperFunction,ComponentPad*
%ADD16O,1.905000X2.000000*%
G04 #@! TD*
G04 #@! TA.AperFunction,ViaPad*
%ADD17C,0.800000*%
G04 #@! TD*
G04 #@! TA.AperFunction,Conductor*
%ADD18C,0.250000*%
G04 #@! TD*
G04 APERTURE END LIST*
D10*
X153480000Y-100965000D03*
D11*
X153480000Y-106045000D03*
D12*
X99000000Y-90000000D03*
D13*
X118665000Y-104775000D03*
D14*
X108665000Y-104775000D03*
D13*
X137240000Y-104775000D03*
D14*
X147240000Y-104775000D03*
D12*
X158000000Y-90000000D03*
D13*
X137160000Y-100965000D03*
D14*
X147320000Y-100965000D03*
D13*
X108585000Y-109220000D03*
D14*
X118745000Y-109220000D03*
D13*
X118015000Y-90170000D03*
D14*
X128175000Y-90170000D03*
D13*
X137160000Y-116205000D03*
D14*
X147320000Y-116205000D03*
D10*
X103695000Y-106045000D03*
D11*
X103695000Y-100965000D03*
D13*
X137160000Y-108585000D03*
D14*
X147320000Y-108585000D03*
D12*
X158000000Y-119000000D03*
D13*
X147320000Y-112395000D03*
D14*
X137160000Y-112395000D03*
D12*
X99000000Y-119000000D03*
D13*
X122555000Y-116840000D03*
D14*
X132715000Y-116840000D03*
D13*
X147320000Y-120015000D03*
D14*
X137160000Y-120015000D03*
D13*
X132715000Y-113030000D03*
D14*
X122555000Y-113030000D03*
D15*
X133350000Y-88575000D03*
D16*
X135890000Y-88575000D03*
X138430000Y-88575000D03*
D17*
X126000000Y-105410000D03*
X121285000Y-101600000D03*
X119925000Y-102325000D03*
X116205000Y-102325000D03*
X116205000Y-97790000D03*
X125730000Y-97790000D03*
X135255000Y-102870000D03*
X130175000Y-109220000D03*
X121285000Y-106680000D03*
D18*
X123190000Y-118745000D02*
X122555000Y-118110000D01*
X147320000Y-120015000D02*
X147320000Y-118745000D01*
X146685000Y-118110000D02*
X135255000Y-118110000D01*
X122555000Y-118110000D02*
X122555000Y-116840000D01*
X134620000Y-118745000D02*
X123190000Y-118745000D01*
X135255000Y-118110000D02*
X134620000Y-118745000D01*
X147320000Y-118745000D02*
X146685000Y-118110000D01*
X107315000Y-101600000D02*
X106680000Y-102235000D01*
X121285000Y-101600000D02*
X107315000Y-101600000D01*
X105410000Y-106045000D02*
X103695000Y-106045000D01*
X106680000Y-102235000D02*
X106680000Y-104775000D01*
X106680000Y-104775000D02*
X105410000Y-106045000D01*
X120015000Y-102235000D02*
X119925000Y-102325000D01*
X116205000Y-102325000D02*
X119925000Y-102325000D01*
X125730000Y-97790000D02*
X116205000Y-97790000D01*
X145415000Y-104140000D02*
X145415000Y-106680000D01*
X135255000Y-102870000D02*
X144145000Y-102870000D01*
X130175000Y-109220000D02*
X118745000Y-109220000D01*
X145415000Y-106680000D02*
X147320000Y-108585000D01*
X144145000Y-102870000D02*
X145415000Y-104140000D01*
X120650000Y-107315000D02*
X109220000Y-107315000D01*
X109220000Y-107315000D02*
X108585000Y-107950000D01*
X121285000Y-106680000D02*
X120650000Y-107315000D01*
X108585000Y-107950000D02*
X108585000Y-109220000D01*
G04 #@! TA.AperFunction,Conductor*
G36*
X125802539Y-85744685D02*
G01*
X125848294Y-85797489D01*
X125859500Y-85849000D01*
X125859500Y-87580000D01*
X125859500Y-92586000D01*
X125859501Y-92586009D01*
X125871052Y-92693450D01*
X125871054Y-92693462D01*
X125882260Y-92744972D01*
X125916383Y-92847497D01*
X125916386Y-92847503D01*
X125994171Y-92968537D01*
X125994179Y-92968548D01*
X126039923Y-93021340D01*
X126039926Y-93021343D01*
X126039930Y-93021347D01*
X126148664Y-93115567D01*
X126148667Y-93115568D01*
X126148668Y-93115569D01*
X126242925Y-93158616D01*
X126279541Y-93175338D01*
X126346580Y-93195023D01*
X126346584Y-93195024D01*
X126489000Y-93215500D01*
X126489003Y-93215500D01*
X140845990Y-93215500D01*
X140846000Y-93215500D01*
X140953456Y-93203947D01*
X141004967Y-93192741D01*
X141039197Y-93181347D01*
X141107497Y-93158616D01*
X141107501Y-93158613D01*
X141107504Y-93158613D01*
X141228543Y-93080825D01*
X141281347Y-93035070D01*
X141375567Y-92926336D01*
X141435338Y-92795459D01*
X141455023Y-92728420D01*
X141455024Y-92728416D01*
X141475500Y-92586000D01*
X141475500Y-85849000D01*
X141495185Y-85781961D01*
X141547989Y-85736206D01*
X141599500Y-85725000D01*
X151641000Y-85725000D01*
X151708039Y-85744685D01*
X151753794Y-85797489D01*
X151765000Y-85849000D01*
X151765000Y-94615000D01*
X156147522Y-97119298D01*
X156195961Y-97169649D01*
X156210000Y-97226959D01*
X156210000Y-112972968D01*
X156190315Y-113040007D01*
X156166698Y-113067116D01*
X151765000Y-116840000D01*
X151765000Y-123066000D01*
X151745315Y-123133039D01*
X151692511Y-123178794D01*
X151641000Y-123190000D01*
X104899000Y-123190000D01*
X104831961Y-123170315D01*
X104786206Y-123117511D01*
X104775000Y-123066000D01*
X104775000Y-116840001D01*
X121249532Y-116840001D01*
X121269364Y-117066686D01*
X121269366Y-117066697D01*
X121328258Y-117286488D01*
X121328261Y-117286497D01*
X121424431Y-117492732D01*
X121424432Y-117492734D01*
X121554954Y-117679141D01*
X121715858Y-117840045D01*
X121876623Y-117952613D01*
X121920248Y-118007189D01*
X121929500Y-118054188D01*
X121929500Y-118171609D01*
X121946911Y-118259142D01*
X121951318Y-118281296D01*
X121953536Y-118292448D01*
X122000688Y-118406286D01*
X122000688Y-118406287D01*
X122014813Y-118427426D01*
X122029037Y-118448712D01*
X122029038Y-118448715D01*
X122029039Y-118448715D01*
X122069140Y-118508731D01*
X122069141Y-118508732D01*
X122069142Y-118508733D01*
X122156267Y-118595858D01*
X122156268Y-118595858D01*
X122163335Y-118602925D01*
X122163334Y-118602925D01*
X122163338Y-118602928D01*
X122791263Y-119230855D01*
X122791266Y-119230857D01*
X122791267Y-119230858D01*
X122893715Y-119299312D01*
X122932882Y-119315535D01*
X122932883Y-119315536D01*
X122932884Y-119315536D01*
X123007548Y-119346463D01*
X123019936Y-119348927D01*
X123074165Y-119359714D01*
X123128392Y-119370501D01*
X123128394Y-119370501D01*
X123257721Y-119370501D01*
X123257741Y-119370500D01*
X134681607Y-119370500D01*
X134742029Y-119358481D01*
X134802452Y-119346463D01*
X134802455Y-119346461D01*
X134802458Y-119346461D01*
X134835787Y-119332654D01*
X134835786Y-119332654D01*
X134835792Y-119332652D01*
X134916286Y-119299312D01*
X134967509Y-119265084D01*
X135018733Y-119230858D01*
X135105858Y-119143733D01*
X135105859Y-119143730D01*
X135477773Y-118771817D01*
X135539095Y-118738334D01*
X135565453Y-118735500D01*
X136326684Y-118735500D01*
X136393723Y-118755185D01*
X136439478Y-118807989D01*
X136449422Y-118877147D01*
X136420397Y-118940703D01*
X136397807Y-118961075D01*
X136320858Y-119014954D01*
X136159954Y-119175858D01*
X136029432Y-119362265D01*
X136029431Y-119362267D01*
X135933261Y-119568502D01*
X135933258Y-119568511D01*
X135874366Y-119788302D01*
X135874364Y-119788313D01*
X135854532Y-120014998D01*
X135854532Y-120015001D01*
X135874364Y-120241686D01*
X135874366Y-120241697D01*
X135933258Y-120461488D01*
X135933261Y-120461497D01*
X136029431Y-120667732D01*
X136029432Y-120667734D01*
X136159954Y-120854141D01*
X136320858Y-121015045D01*
X136320861Y-121015047D01*
X136507266Y-121145568D01*
X136713504Y-121241739D01*
X136933308Y-121300635D01*
X137095230Y-121314801D01*
X137159998Y-121320468D01*
X137160000Y-121320468D01*
X137160002Y-121320468D01*
X137216673Y-121315509D01*
X137386692Y-121300635D01*
X137606496Y-121241739D01*
X137812734Y-121145568D01*
X137999139Y-121015047D01*
X138160047Y-120854139D01*
X138290568Y-120667734D01*
X138386739Y-120461496D01*
X138445635Y-120241692D01*
X138465468Y-120015000D01*
X138445635Y-119788308D01*
X138386739Y-119568504D01*
X138290568Y-119362266D01*
X138160047Y-119175861D01*
X138160045Y-119175858D01*
X137999141Y-119014954D01*
X137922193Y-118961075D01*
X137878568Y-118906499D01*
X137871374Y-118837000D01*
X137902897Y-118774645D01*
X137963126Y-118739231D01*
X137993316Y-118735500D01*
X146374548Y-118735500D01*
X146441587Y-118755185D01*
X146462229Y-118771819D01*
X146508410Y-118818000D01*
X146541895Y-118879323D01*
X146536911Y-118949015D01*
X146495039Y-119004948D01*
X146491855Y-119007254D01*
X146480859Y-119014953D01*
X146319954Y-119175858D01*
X146189432Y-119362265D01*
X146189431Y-119362267D01*
X146093261Y-119568502D01*
X146093258Y-119568511D01*
X146034366Y-119788302D01*
X146034364Y-119788313D01*
X146014532Y-120014998D01*
X146014532Y-120015001D01*
X146034364Y-120241686D01*
X146034366Y-120241697D01*
X146093258Y-120461488D01*
X146093261Y-120461497D01*
X146189431Y-120667732D01*
X146189432Y-120667734D01*
X146319954Y-120854141D01*
X146480858Y-121015045D01*
X146480861Y-121015047D01*
X146667266Y-121145568D01*
X146873504Y-121241739D01*
X147093308Y-121300635D01*
X147255230Y-121314801D01*
X147319998Y-121320468D01*
X147320000Y-121320468D01*
X147320002Y-121320468D01*
X147376673Y-121315509D01*
X147546692Y-121300635D01*
X147766496Y-121241739D01*
X147972734Y-121145568D01*
X148159139Y-121015047D01*
X148320047Y-120854139D01*
X148450568Y-120667734D01*
X148546739Y-120461496D01*
X148605635Y-120241692D01*
X148625468Y-120015000D01*
X148605635Y-119788308D01*
X148546739Y-119568504D01*
X148450568Y-119362266D01*
X148320047Y-119175861D01*
X148320045Y-119175858D01*
X148159140Y-119014953D01*
X147998378Y-118902387D01*
X147954753Y-118847810D01*
X147945501Y-118800812D01*
X147945501Y-118683391D01*
X147921464Y-118562555D01*
X147921463Y-118562549D01*
X147874312Y-118448715D01*
X147874311Y-118448713D01*
X147874310Y-118448711D01*
X147805858Y-118346267D01*
X147805855Y-118346263D01*
X147177928Y-117718338D01*
X147177926Y-117718335D01*
X147177409Y-117717818D01*
X147177224Y-117717479D01*
X147162435Y-117699440D01*
X147162433Y-117699437D01*
X147166054Y-117697022D01*
X147143924Y-117656495D01*
X147148908Y-117586803D01*
X147190780Y-117530870D01*
X147256244Y-117506453D01*
X147275890Y-117506608D01*
X147320000Y-117510468D01*
X147320000Y-117510467D01*
X147320001Y-117510468D01*
X147320002Y-117510468D01*
X147387654Y-117504549D01*
X147546692Y-117490635D01*
X147766496Y-117431739D01*
X147972734Y-117335568D01*
X148159139Y-117205047D01*
X148320047Y-117044139D01*
X148450568Y-116857734D01*
X148546739Y-116651496D01*
X148605635Y-116431692D01*
X148625468Y-116205000D01*
X148623916Y-116187266D01*
X148607608Y-116000861D01*
X148605635Y-115978308D01*
X148546739Y-115758504D01*
X148450568Y-115552266D01*
X148320047Y-115365861D01*
X148320045Y-115365858D01*
X148159141Y-115204954D01*
X147972734Y-115074432D01*
X147972732Y-115074431D01*
X147766497Y-114978261D01*
X147766488Y-114978258D01*
X147546697Y-114919366D01*
X147546693Y-114919365D01*
X147546692Y-114919365D01*
X147546691Y-114919364D01*
X147546686Y-114919364D01*
X147320002Y-114899532D01*
X147319998Y-114899532D01*
X147093313Y-114919364D01*
X147093302Y-114919366D01*
X146873511Y-114978258D01*
X146873502Y-114978261D01*
X146667267Y-115074431D01*
X146667265Y-115074432D01*
X146480858Y-115204954D01*
X146319954Y-115365858D01*
X146189432Y-115552265D01*
X146189431Y-115552267D01*
X146093261Y-115758502D01*
X146093258Y-115758511D01*
X146034366Y-115978302D01*
X146034364Y-115978313D01*
X146014532Y-116204998D01*
X146014532Y-116205001D01*
X146034364Y-116431686D01*
X146034366Y-116431697D01*
X146093258Y-116651488D01*
X146093261Y-116651497D01*
X146189431Y-116857732D01*
X146189432Y-116857734D01*
X146319954Y-117044141D01*
X146480858Y-117205045D01*
X146557807Y-117258925D01*
X146601432Y-117313501D01*
X146608626Y-117383000D01*
X146577103Y-117445355D01*
X146516874Y-117480769D01*
X146486684Y-117484500D01*
X137993316Y-117484500D01*
X137926277Y-117464815D01*
X137880522Y-117412011D01*
X137870578Y-117342853D01*
X137899603Y-117279297D01*
X137922193Y-117258925D01*
X137948990Y-117240160D01*
X137999139Y-117205047D01*
X138160047Y-117044139D01*
X138290568Y-116857734D01*
X138386739Y-116651496D01*
X138445635Y-116431692D01*
X138465468Y-116205000D01*
X138463916Y-116187266D01*
X138447608Y-116000861D01*
X138445635Y-115978308D01*
X138386739Y-115758504D01*
X138290568Y-115552266D01*
X138160047Y-115365861D01*
X138160045Y-115365858D01*
X137999141Y-115204954D01*
X137812734Y-115074432D01*
X137812732Y-115074431D01*
X137606497Y-114978261D01*
X137606488Y-114978258D01*
X137386697Y-114919366D01*
X137386693Y-114919365D01*
X137386692Y-114919365D01*
X137386691Y-114919364D01*
X137386686Y-114919364D01*
X137160002Y-114899532D01*
X137159998Y-114899532D01*
X136933313Y-114919364D01*
X136933302Y-114919366D01*
X136713511Y-114978258D01*
X136713502Y-114978261D01*
X136507267Y-115074431D01*
X136507265Y-115074432D01*
X136320858Y-115204954D01*
X136159954Y-115365858D01*
X136029432Y-115552265D01*
X136029431Y-115552267D01*
X135933261Y-115758502D01*
X135933258Y-115758511D01*
X135874366Y-115978302D01*
X135874364Y-115978313D01*
X135854532Y-116204998D01*
X135854532Y-116205001D01*
X135874364Y-116431686D01*
X135874366Y-116431697D01*
X135933258Y-116651488D01*
X135933261Y-116651497D01*
X136029431Y-116857732D01*
X136029432Y-116857734D01*
X136159954Y-117044141D01*
X136320858Y-117205045D01*
X136397807Y-117258925D01*
X136441432Y-117313501D01*
X136448626Y-117383000D01*
X136417103Y-117445355D01*
X136356874Y-117480769D01*
X136326684Y-117484500D01*
X135322741Y-117484500D01*
X135322721Y-117484499D01*
X135316607Y-117484499D01*
X135193394Y-117484499D01*
X135092597Y-117504548D01*
X135092592Y-117504548D01*
X135072549Y-117508536D01*
X135072547Y-117508536D01*
X135025397Y-117528067D01*
X134958719Y-117555685D01*
X134958717Y-117555686D01*
X134856266Y-117624141D01*
X134856263Y-117624144D01*
X134397229Y-118083181D01*
X134335906Y-118116666D01*
X134309548Y-118119500D01*
X133548316Y-118119500D01*
X133481277Y-118099815D01*
X133435522Y-118047011D01*
X133425578Y-117977853D01*
X133454603Y-117914297D01*
X133477193Y-117893925D01*
X133539850Y-117850052D01*
X133554139Y-117840047D01*
X133715047Y-117679139D01*
X133845568Y-117492734D01*
X133941739Y-117286496D01*
X134000635Y-117066692D01*
X134017634Y-116872384D01*
X134020468Y-116840001D01*
X134020468Y-116839998D01*
X134000635Y-116613313D01*
X134000635Y-116613308D01*
X133941739Y-116393504D01*
X133845568Y-116187266D01*
X133715047Y-116000861D01*
X133715045Y-116000858D01*
X133554141Y-115839954D01*
X133367734Y-115709432D01*
X133367732Y-115709431D01*
X133161497Y-115613261D01*
X133161488Y-115613258D01*
X132941697Y-115554366D01*
X132941693Y-115554365D01*
X132941692Y-115554365D01*
X132941691Y-115554364D01*
X132941686Y-115554364D01*
X132715002Y-115534532D01*
X132714998Y-115534532D01*
X132488313Y-115554364D01*
X132488302Y-115554366D01*
X132268511Y-115613258D01*
X132268502Y-115613261D01*
X132062267Y-115709431D01*
X132062265Y-115709432D01*
X131875858Y-115839954D01*
X131714954Y-116000858D01*
X131584432Y-116187265D01*
X131584431Y-116187267D01*
X131488261Y-116393502D01*
X131488258Y-116393511D01*
X131429366Y-116613302D01*
X131429364Y-116613313D01*
X131409532Y-116839998D01*
X131409532Y-116840001D01*
X131429364Y-117066686D01*
X131429366Y-117066697D01*
X131488258Y-117286488D01*
X131488261Y-117286497D01*
X131584431Y-117492732D01*
X131584432Y-117492734D01*
X131714954Y-117679141D01*
X131875858Y-117840045D01*
X131952807Y-117893925D01*
X131996432Y-117948501D01*
X132003626Y-118018000D01*
X131972103Y-118080355D01*
X131911874Y-118115769D01*
X131881684Y-118119500D01*
X123500453Y-118119500D01*
X123433414Y-118099815D01*
X123412773Y-118083182D01*
X123396330Y-118066739D01*
X123366589Y-118036998D01*
X123333104Y-117975677D01*
X123338088Y-117905986D01*
X123379958Y-117850052D01*
X123383120Y-117847761D01*
X123394139Y-117840047D01*
X123555047Y-117679139D01*
X123685568Y-117492734D01*
X123781739Y-117286496D01*
X123840635Y-117066692D01*
X123857634Y-116872384D01*
X123860468Y-116840001D01*
X123860468Y-116839998D01*
X123840635Y-116613313D01*
X123840635Y-116613308D01*
X123781739Y-116393504D01*
X123685568Y-116187266D01*
X123555047Y-116000861D01*
X123555045Y-116000858D01*
X123394141Y-115839954D01*
X123207734Y-115709432D01*
X123207732Y-115709431D01*
X123001497Y-115613261D01*
X123001488Y-115613258D01*
X122781697Y-115554366D01*
X122781693Y-115554365D01*
X122781692Y-115554365D01*
X122781691Y-115554364D01*
X122781686Y-115554364D01*
X122555002Y-115534532D01*
X122554998Y-115534532D01*
X122328313Y-115554364D01*
X122328302Y-115554366D01*
X122108511Y-115613258D01*
X122108502Y-115613261D01*
X121902267Y-115709431D01*
X121902265Y-115709432D01*
X121715858Y-115839954D01*
X121554954Y-116000858D01*
X121424432Y-116187265D01*
X121424431Y-116187267D01*
X121328261Y-116393502D01*
X121328258Y-116393511D01*
X121269366Y-116613302D01*
X121269364Y-116613313D01*
X121249532Y-116839998D01*
X121249532Y-116840001D01*
X104775000Y-116840001D01*
X104775000Y-114934999D01*
X102108003Y-113030001D01*
X121249532Y-113030001D01*
X121269364Y-113256686D01*
X121269366Y-113256697D01*
X121328258Y-113476488D01*
X121328261Y-113476497D01*
X121424431Y-113682732D01*
X121424432Y-113682734D01*
X121554954Y-113869141D01*
X121715858Y-114030045D01*
X121715861Y-114030047D01*
X121902266Y-114160568D01*
X122108504Y-114256739D01*
X122328308Y-114315635D01*
X122490230Y-114329801D01*
X122554998Y-114335468D01*
X122555000Y-114335468D01*
X122555002Y-114335468D01*
X122611673Y-114330509D01*
X122781692Y-114315635D01*
X123001496Y-114256739D01*
X123207734Y-114160568D01*
X123394139Y-114030047D01*
X123555047Y-113869139D01*
X123685568Y-113682734D01*
X123781739Y-113476496D01*
X123840635Y-113256692D01*
X123857634Y-113062384D01*
X123860468Y-113030001D01*
X131409532Y-113030001D01*
X131429364Y-113256686D01*
X131429366Y-113256697D01*
X131488258Y-113476488D01*
X131488261Y-113476497D01*
X131584431Y-113682732D01*
X131584432Y-113682734D01*
X131714954Y-113869141D01*
X131875858Y-114030045D01*
X131875861Y-114030047D01*
X132062266Y-114160568D01*
X132268504Y-114256739D01*
X132488308Y-114315635D01*
X132650230Y-114329801D01*
X132714998Y-114335468D01*
X132715000Y-114335468D01*
X132715002Y-114335468D01*
X132771673Y-114330509D01*
X132941692Y-114315635D01*
X133161496Y-114256739D01*
X133367734Y-114160568D01*
X133554139Y-114030047D01*
X133715047Y-113869139D01*
X133845568Y-113682734D01*
X133941739Y-113476496D01*
X134000635Y-113256692D01*
X134017634Y-113062384D01*
X134020468Y-113030001D01*
X134020468Y-113029998D01*
X134000635Y-112803313D01*
X134000635Y-112803308D01*
X133941739Y-112583504D01*
X133845568Y-112377266D01*
X133715047Y-112190861D01*
X133715045Y-112190858D01*
X133669186Y-112144999D01*
X135881127Y-112144999D01*
X135881128Y-112145000D01*
X136844314Y-112145000D01*
X136839920Y-112149394D01*
X136787259Y-112240606D01*
X136760000Y-112342339D01*
X136760000Y-112447661D01*
X136787259Y-112549394D01*
X136839920Y-112640606D01*
X136844314Y-112645000D01*
X135881128Y-112645000D01*
X135933730Y-112841317D01*
X135933734Y-112841326D01*
X136029865Y-113047482D01*
X136160342Y-113233820D01*
X136321179Y-113394657D01*
X136507517Y-113525134D01*
X136713673Y-113621265D01*
X136713682Y-113621269D01*
X136909999Y-113673872D01*
X136910000Y-113673871D01*
X136910000Y-112710686D01*
X136914394Y-112715080D01*
X137005606Y-112767741D01*
X137107339Y-112795000D01*
X137212661Y-112795000D01*
X137314394Y-112767741D01*
X137405606Y-112715080D01*
X137410000Y-112710686D01*
X137410000Y-113673872D01*
X137606317Y-113621269D01*
X137606326Y-113621265D01*
X137812482Y-113525134D01*
X137998820Y-113394657D01*
X138159657Y-113233820D01*
X138290134Y-113047482D01*
X138386265Y-112841326D01*
X138386269Y-112841317D01*
X138438872Y-112645000D01*
X137475686Y-112645000D01*
X137480080Y-112640606D01*
X137532741Y-112549394D01*
X137560000Y-112447661D01*
X137560000Y-112395001D01*
X146014532Y-112395001D01*
X146034364Y-112621686D01*
X146034366Y-112621697D01*
X146093258Y-112841488D01*
X146093261Y-112841497D01*
X146189431Y-113047732D01*
X146189432Y-113047734D01*
X146319954Y-113234141D01*
X146480858Y-113395045D01*
X146480861Y-113395047D01*
X146667266Y-113525568D01*
X146873504Y-113621739D01*
X147093308Y-113680635D01*
X147255230Y-113694801D01*
X147319998Y-113700468D01*
X147320000Y-113700468D01*
X147320002Y-113700468D01*
X147376673Y-113695509D01*
X147546692Y-113680635D01*
X147766496Y-113621739D01*
X147972734Y-113525568D01*
X148159139Y-113395047D01*
X148320047Y-113234139D01*
X148450568Y-113047734D01*
X148546739Y-112841496D01*
X148605635Y-112621692D01*
X148625468Y-112395000D01*
X148623916Y-112377266D01*
X148607608Y-112190861D01*
X148605635Y-112168308D01*
X148546739Y-111948504D01*
X148450568Y-111742266D01*
X148320047Y-111555861D01*
X148320045Y-111555858D01*
X148159141Y-111394954D01*
X147972734Y-111264432D01*
X147972732Y-111264431D01*
X147766497Y-111168261D01*
X147766488Y-111168258D01*
X147546697Y-111109366D01*
X147546693Y-111109365D01*
X147546692Y-111109365D01*
X147546691Y-111109364D01*
X147546686Y-111109364D01*
X147320002Y-111089532D01*
X147319998Y-111089532D01*
X147093313Y-111109364D01*
X147093302Y-111109366D01*
X146873511Y-111168258D01*
X146873502Y-111168261D01*
X146667267Y-111264431D01*
X146667265Y-111264432D01*
X146480858Y-111394954D01*
X146319954Y-111555858D01*
X146189432Y-111742265D01*
X146189431Y-111742267D01*
X146093261Y-111948502D01*
X146093258Y-111948511D01*
X146034366Y-112168302D01*
X146034364Y-112168313D01*
X146014532Y-112394998D01*
X146014532Y-112395001D01*
X137560000Y-112395001D01*
X137560000Y-112342339D01*
X137532741Y-112240606D01*
X137480080Y-112149394D01*
X137475686Y-112145000D01*
X138438872Y-112145000D01*
X138438872Y-112144999D01*
X138386269Y-111948682D01*
X138386265Y-111948673D01*
X138290134Y-111742517D01*
X138159657Y-111556179D01*
X137998820Y-111395342D01*
X137812482Y-111264865D01*
X137606328Y-111168734D01*
X137410000Y-111116127D01*
X137410000Y-112079314D01*
X137405606Y-112074920D01*
X137314394Y-112022259D01*
X137212661Y-111995000D01*
X137107339Y-111995000D01*
X137005606Y-112022259D01*
X136914394Y-112074920D01*
X136910000Y-112079314D01*
X136910000Y-111116127D01*
X136713671Y-111168734D01*
X136507517Y-111264865D01*
X136321179Y-111395342D01*
X136160342Y-111556179D01*
X136029865Y-111742517D01*
X135933734Y-111948673D01*
X135933730Y-111948682D01*
X135881127Y-112144999D01*
X133669186Y-112144999D01*
X133554141Y-112029954D01*
X133367734Y-111899432D01*
X133367732Y-111899431D01*
X133161497Y-111803261D01*
X133161488Y-111803258D01*
X132941697Y-111744366D01*
X132941693Y-111744365D01*
X132941692Y-111744365D01*
X132941691Y-111744364D01*
X132941686Y-111744364D01*
X132715002Y-111724532D01*
X132714998Y-111724532D01*
X132488313Y-111744364D01*
X132488302Y-111744366D01*
X132268511Y-111803258D01*
X132268502Y-111803261D01*
X132062267Y-111899431D01*
X132062265Y-111899432D01*
X131875858Y-112029954D01*
X131714954Y-112190858D01*
X131584432Y-112377265D01*
X131584431Y-112377267D01*
X131488261Y-112583502D01*
X131488258Y-112583511D01*
X131429366Y-112803302D01*
X131429364Y-112803313D01*
X131409532Y-113029998D01*
X131409532Y-113030001D01*
X123860468Y-113030001D01*
X123860468Y-113029998D01*
X123840635Y-112803313D01*
X123840635Y-112803308D01*
X123781739Y-112583504D01*
X123685568Y-112377266D01*
X123555047Y-112190861D01*
X123555045Y-112190858D01*
X123394141Y-112029954D01*
X123207734Y-111899432D01*
X123207732Y-111899431D01*
X123001497Y-111803261D01*
X123001488Y-111803258D01*
X122781697Y-111744366D01*
X122781693Y-111744365D01*
X122781692Y-111744365D01*
X122781691Y-111744364D01*
X122781686Y-111744364D01*
X122555002Y-111724532D01*
X122554998Y-111724532D01*
X122328313Y-111744364D01*
X122328302Y-111744366D01*
X122108511Y-111803258D01*
X122108502Y-111803261D01*
X121902267Y-111899431D01*
X121902265Y-111899432D01*
X121715858Y-112029954D01*
X121554954Y-112190858D01*
X121424432Y-112377265D01*
X121424431Y-112377267D01*
X121328261Y-112583502D01*
X121328258Y-112583511D01*
X121269366Y-112803302D01*
X121269364Y-112803313D01*
X121249532Y-113029998D01*
X121249532Y-113030001D01*
X102108003Y-113030001D01*
X100381926Y-111797089D01*
X100338816Y-111742105D01*
X100330000Y-111696186D01*
X100330000Y-109220001D01*
X107279532Y-109220001D01*
X107299364Y-109446686D01*
X107299366Y-109446697D01*
X107358258Y-109666488D01*
X107358261Y-109666497D01*
X107454431Y-109872732D01*
X107454432Y-109872734D01*
X107584954Y-110059141D01*
X107745858Y-110220045D01*
X107745861Y-110220047D01*
X107932266Y-110350568D01*
X108138504Y-110446739D01*
X108358308Y-110505635D01*
X108520230Y-110519801D01*
X108584998Y-110525468D01*
X108585000Y-110525468D01*
X108585002Y-110525468D01*
X108641673Y-110520509D01*
X108811692Y-110505635D01*
X109031496Y-110446739D01*
X109237734Y-110350568D01*
X109424139Y-110220047D01*
X109585047Y-110059139D01*
X109715568Y-109872734D01*
X109811739Y-109666496D01*
X109870635Y-109446692D01*
X109887634Y-109252384D01*
X109890468Y-109220001D01*
X109890468Y-109219998D01*
X109884801Y-109155230D01*
X109870635Y-108993308D01*
X109811739Y-108773504D01*
X109715568Y-108567266D01*
X109585047Y-108380861D01*
X109585045Y-108380858D01*
X109424140Y-108219953D01*
X109413145Y-108212254D01*
X109369521Y-108157676D01*
X109362330Y-108088177D01*
X109393854Y-108025823D01*
X109396592Y-108022998D01*
X109442775Y-107976817D01*
X109504099Y-107943333D01*
X109530454Y-107940500D01*
X117911684Y-107940500D01*
X117978723Y-107960185D01*
X118024478Y-108012989D01*
X118034422Y-108082147D01*
X118005397Y-108145703D01*
X117982807Y-108166075D01*
X117905858Y-108219954D01*
X117744954Y-108380858D01*
X117614432Y-108567265D01*
X117614431Y-108567267D01*
X117518261Y-108773502D01*
X117518258Y-108773511D01*
X117459366Y-108993302D01*
X117459364Y-108993313D01*
X117439532Y-109219998D01*
X117439532Y-109220001D01*
X117459364Y-109446686D01*
X117459366Y-109446697D01*
X117518258Y-109666488D01*
X117518261Y-109666497D01*
X117614431Y-109872732D01*
X117614432Y-109872734D01*
X117744954Y-110059141D01*
X117905858Y-110220045D01*
X117905861Y-110220047D01*
X118092266Y-110350568D01*
X118298504Y-110446739D01*
X118518308Y-110505635D01*
X118680230Y-110519801D01*
X118744998Y-110525468D01*
X118745000Y-110525468D01*
X118745002Y-110525468D01*
X118801673Y-110520509D01*
X118971692Y-110505635D01*
X119191496Y-110446739D01*
X119397734Y-110350568D01*
X119584139Y-110220047D01*
X119745047Y-110059139D01*
X119857613Y-109898377D01*
X119912189Y-109854752D01*
X119959188Y-109845500D01*
X129471252Y-109845500D01*
X129538291Y-109865185D01*
X129563400Y-109886526D01*
X129569126Y-109892885D01*
X129569130Y-109892889D01*
X129722265Y-110004148D01*
X129722270Y-110004151D01*
X129895192Y-110081142D01*
X129895197Y-110081144D01*
X130080354Y-110120500D01*
X130080355Y-110120500D01*
X130269644Y-110120500D01*
X130269646Y-110120500D01*
X130454803Y-110081144D01*
X130627730Y-110004151D01*
X130780871Y-109892888D01*
X130907533Y-109752216D01*
X131002179Y-109588284D01*
X131060674Y-109408256D01*
X131080460Y-109220000D01*
X131060674Y-109031744D01*
X131002179Y-108851716D01*
X130907533Y-108687784D01*
X130814987Y-108585001D01*
X135854532Y-108585001D01*
X135874364Y-108811686D01*
X135874366Y-108811697D01*
X135933258Y-109031488D01*
X135933261Y-109031497D01*
X136029431Y-109237732D01*
X136029432Y-109237734D01*
X136159954Y-109424141D01*
X136320858Y-109585045D01*
X136320861Y-109585047D01*
X136507266Y-109715568D01*
X136713504Y-109811739D01*
X136933308Y-109870635D01*
X137095230Y-109884801D01*
X137159998Y-109890468D01*
X137160000Y-109890468D01*
X137160002Y-109890468D01*
X137216673Y-109885509D01*
X137386692Y-109870635D01*
X137606496Y-109811739D01*
X137812734Y-109715568D01*
X137999139Y-109585047D01*
X138160047Y-109424139D01*
X138290568Y-109237734D01*
X138386739Y-109031496D01*
X138445635Y-108811692D01*
X138465468Y-108585000D01*
X138463916Y-108567266D01*
X138447608Y-108380861D01*
X138445635Y-108358308D01*
X138386739Y-108138504D01*
X138290568Y-107932266D01*
X138192839Y-107792693D01*
X138160045Y-107745858D01*
X137999141Y-107584954D01*
X137812734Y-107454432D01*
X137812732Y-107454431D01*
X137606497Y-107358261D01*
X137606488Y-107358258D01*
X137386697Y-107299366D01*
X137386693Y-107299365D01*
X137386692Y-107299365D01*
X137386691Y-107299364D01*
X137386686Y-107299364D01*
X137160002Y-107279532D01*
X137159998Y-107279532D01*
X136933313Y-107299364D01*
X136933302Y-107299366D01*
X136713511Y-107358258D01*
X136713502Y-107358261D01*
X136507267Y-107454431D01*
X136507265Y-107454432D01*
X136320858Y-107584954D01*
X136159954Y-107745858D01*
X136029432Y-107932265D01*
X136029431Y-107932267D01*
X135933261Y-108138502D01*
X135933258Y-108138511D01*
X135874366Y-108358302D01*
X135874364Y-108358313D01*
X135854532Y-108584998D01*
X135854532Y-108585001D01*
X130814987Y-108585001D01*
X130780871Y-108547112D01*
X130780870Y-108547111D01*
X130627734Y-108435851D01*
X130627729Y-108435848D01*
X130454807Y-108358857D01*
X130454802Y-108358855D01*
X130309001Y-108327865D01*
X130269646Y-108319500D01*
X130080354Y-108319500D01*
X130047897Y-108326398D01*
X129895197Y-108358855D01*
X129895192Y-108358857D01*
X129722270Y-108435848D01*
X129722265Y-108435851D01*
X129569130Y-108547110D01*
X129569126Y-108547114D01*
X129563400Y-108553474D01*
X129503913Y-108590121D01*
X129471252Y-108594500D01*
X119959188Y-108594500D01*
X119892149Y-108574815D01*
X119857613Y-108541623D01*
X119745045Y-108380858D01*
X119584141Y-108219954D01*
X119507193Y-108166075D01*
X119463568Y-108111499D01*
X119456374Y-108042000D01*
X119487897Y-107979645D01*
X119548126Y-107944231D01*
X119578316Y-107940500D01*
X120711607Y-107940500D01*
X120772029Y-107928481D01*
X120832452Y-107916463D01*
X120832455Y-107916461D01*
X120832458Y-107916461D01*
X120865787Y-107902654D01*
X120865786Y-107902654D01*
X120865792Y-107902652D01*
X120946286Y-107869312D01*
X120997509Y-107835084D01*
X121048733Y-107800858D01*
X121135858Y-107713733D01*
X121135858Y-107713731D01*
X121146066Y-107703524D01*
X121146069Y-107703520D01*
X121232773Y-107616818D01*
X121294096Y-107583333D01*
X121320453Y-107580500D01*
X121379644Y-107580500D01*
X121379646Y-107580500D01*
X121564803Y-107541144D01*
X121737730Y-107464151D01*
X121890871Y-107352888D01*
X122017533Y-107212216D01*
X122112179Y-107048284D01*
X122170674Y-106868256D01*
X122190460Y-106680000D01*
X122170674Y-106491744D01*
X122112179Y-106311716D01*
X122017533Y-106147784D01*
X121890871Y-106007112D01*
X121890870Y-106007111D01*
X121737734Y-105895851D01*
X121737729Y-105895848D01*
X121564807Y-105818857D01*
X121564802Y-105818855D01*
X121419001Y-105787865D01*
X121379646Y-105779500D01*
X121190354Y-105779500D01*
X121157897Y-105786398D01*
X121005197Y-105818855D01*
X121005192Y-105818857D01*
X120832270Y-105895848D01*
X120832265Y-105895851D01*
X120679129Y-106007111D01*
X120552466Y-106147785D01*
X120457821Y-106311715D01*
X120457818Y-106311722D01*
X120399327Y-106491740D01*
X120399326Y-106491744D01*
X120393467Y-106547494D01*
X120390212Y-106578462D01*
X120363627Y-106643077D01*
X120306330Y-106683061D01*
X120266891Y-106689500D01*
X109287741Y-106689500D01*
X109287721Y-106689499D01*
X109281607Y-106689499D01*
X109158394Y-106689499D01*
X109057597Y-106709548D01*
X109057592Y-106709548D01*
X109037549Y-106713536D01*
X109037547Y-106713536D01*
X108990397Y-106733067D01*
X108923719Y-106760685D01*
X108923717Y-106760686D01*
X108821266Y-106829141D01*
X108821265Y-106829143D01*
X108484551Y-107165858D01*
X108186269Y-107464140D01*
X108186267Y-107464142D01*
X108163081Y-107487328D01*
X108099142Y-107551266D01*
X108076633Y-107584954D01*
X108076632Y-107584955D01*
X108030690Y-107653709D01*
X108030685Y-107653718D01*
X107997347Y-107734206D01*
X107997347Y-107734207D01*
X107983537Y-107767548D01*
X107983535Y-107767554D01*
X107971517Y-107827967D01*
X107971518Y-107827968D01*
X107963297Y-107869306D01*
X107963296Y-107869314D01*
X107959500Y-107888394D01*
X107959500Y-108005811D01*
X107939815Y-108072850D01*
X107906623Y-108107386D01*
X107745859Y-108219953D01*
X107584954Y-108380858D01*
X107454432Y-108567265D01*
X107454431Y-108567267D01*
X107358261Y-108773502D01*
X107358258Y-108773511D01*
X107299366Y-108993302D01*
X107299364Y-108993313D01*
X107279532Y-109219998D01*
X107279532Y-109220001D01*
X100330000Y-109220001D01*
X100330000Y-107292870D01*
X101994500Y-107292870D01*
X101994501Y-107292876D01*
X102000908Y-107352483D01*
X102051202Y-107487328D01*
X102051206Y-107487335D01*
X102137452Y-107602544D01*
X102137455Y-107602547D01*
X102252664Y-107688793D01*
X102252671Y-107688797D01*
X102387517Y-107739091D01*
X102387516Y-107739091D01*
X102394444Y-107739835D01*
X102447127Y-107745500D01*
X104942872Y-107745499D01*
X105002483Y-107739091D01*
X105137331Y-107688796D01*
X105252546Y-107602546D01*
X105338796Y-107487331D01*
X105389091Y-107352483D01*
X105395500Y-107292873D01*
X105395500Y-106787402D01*
X105415185Y-106720363D01*
X105467989Y-106674608D01*
X105495301Y-106665786D01*
X105532029Y-106658481D01*
X105592452Y-106646463D01*
X105592455Y-106646461D01*
X105592458Y-106646461D01*
X105625787Y-106632654D01*
X105625786Y-106632654D01*
X105625792Y-106632652D01*
X105706286Y-106599312D01*
X105757509Y-106565084D01*
X105808733Y-106530858D01*
X105895858Y-106443733D01*
X105895859Y-106443731D01*
X105902925Y-106436665D01*
X105902928Y-106436661D01*
X107078729Y-105260860D01*
X107078733Y-105260858D01*
X107165858Y-105173733D01*
X107199480Y-105123414D01*
X107253091Y-105078609D01*
X107322416Y-105069902D01*
X107385444Y-105100056D01*
X107422164Y-105159499D01*
X107422357Y-105160211D01*
X107438731Y-105221319D01*
X107438734Y-105221326D01*
X107534865Y-105427482D01*
X107665342Y-105613820D01*
X107826179Y-105774657D01*
X108012517Y-105905134D01*
X108218673Y-106001265D01*
X108218682Y-106001269D01*
X108414999Y-106053872D01*
X108415000Y-106053871D01*
X108415000Y-105090686D01*
X108419394Y-105095080D01*
X108510606Y-105147741D01*
X108612339Y-105175000D01*
X108717661Y-105175000D01*
X108819394Y-105147741D01*
X108910606Y-105095080D01*
X108915000Y-105090686D01*
X108915000Y-106053872D01*
X109111317Y-106001269D01*
X109111326Y-106001265D01*
X109317482Y-105905134D01*
X109503820Y-105774657D01*
X109664657Y-105613820D01*
X109795134Y-105427482D01*
X109891265Y-105221326D01*
X109891269Y-105221317D01*
X109943872Y-105025000D01*
X108980686Y-105025000D01*
X108985080Y-105020606D01*
X109037741Y-104929394D01*
X109065000Y-104827661D01*
X109065000Y-104775001D01*
X117359532Y-104775001D01*
X117379364Y-105001686D01*
X117379366Y-105001697D01*
X117438258Y-105221488D01*
X117438261Y-105221497D01*
X117534431Y-105427732D01*
X117534432Y-105427734D01*
X117664954Y-105614141D01*
X117825858Y-105775045D01*
X117848530Y-105790920D01*
X118012266Y-105905568D01*
X118218504Y-106001739D01*
X118218509Y-106001740D01*
X118218511Y-106001741D01*
X118238556Y-106007112D01*
X118438308Y-106060635D01*
X118600230Y-106074801D01*
X118664998Y-106080468D01*
X118665000Y-106080468D01*
X118665002Y-106080468D01*
X118721673Y-106075509D01*
X118891692Y-106060635D01*
X119111496Y-106001739D01*
X119317734Y-105905568D01*
X119504139Y-105775047D01*
X119665047Y-105614139D01*
X119795568Y-105427734D01*
X119891739Y-105221496D01*
X119950635Y-105001692D01*
X119968532Y-104797127D01*
X119970468Y-104775001D01*
X119970468Y-104774998D01*
X119955391Y-104602669D01*
X119950635Y-104548308D01*
X119891739Y-104328504D01*
X119795568Y-104122266D01*
X119665047Y-103935861D01*
X119665045Y-103935858D01*
X119504141Y-103774954D01*
X119317734Y-103644432D01*
X119317732Y-103644431D01*
X119111497Y-103548261D01*
X119111488Y-103548258D01*
X118891697Y-103489366D01*
X118891693Y-103489365D01*
X118891692Y-103489365D01*
X118891691Y-103489364D01*
X118891686Y-103489364D01*
X118665002Y-103469532D01*
X118664998Y-103469532D01*
X118438313Y-103489364D01*
X118438302Y-103489366D01*
X118218511Y-103548258D01*
X118218502Y-103548261D01*
X118012267Y-103644431D01*
X118012265Y-103644432D01*
X117825858Y-103774954D01*
X117664954Y-103935858D01*
X117534432Y-104122265D01*
X117534431Y-104122267D01*
X117438261Y-104328502D01*
X117438258Y-104328511D01*
X117379366Y-104548302D01*
X117379364Y-104548313D01*
X117359532Y-104774998D01*
X117359532Y-104775001D01*
X109065000Y-104775001D01*
X109065000Y-104722339D01*
X109037741Y-104620606D01*
X108985080Y-104529394D01*
X108980686Y-104525000D01*
X109943872Y-104525000D01*
X109943872Y-104524999D01*
X109891269Y-104328682D01*
X109891265Y-104328673D01*
X109795134Y-104122517D01*
X109664657Y-103936179D01*
X109503820Y-103775342D01*
X109317482Y-103644865D01*
X109111328Y-103548734D01*
X108915000Y-103496127D01*
X108915000Y-104459314D01*
X108910606Y-104454920D01*
X108819394Y-104402259D01*
X108717661Y-104375000D01*
X108612339Y-104375000D01*
X108510606Y-104402259D01*
X108419394Y-104454920D01*
X108415000Y-104459314D01*
X108415000Y-103496127D01*
X108218671Y-103548734D01*
X108012517Y-103644865D01*
X107826179Y-103775342D01*
X107665342Y-103936179D01*
X107531761Y-104126952D01*
X107529919Y-104125662D01*
X107486313Y-104167235D01*
X107417705Y-104180454D01*
X107352842Y-104154481D01*
X107312317Y-104097564D01*
X107305500Y-104057016D01*
X107305500Y-102545452D01*
X107325185Y-102478413D01*
X107341819Y-102457771D01*
X107537772Y-102261819D01*
X107599095Y-102228334D01*
X107625453Y-102225500D01*
X115177432Y-102225500D01*
X115244471Y-102245185D01*
X115290226Y-102297989D01*
X115300752Y-102336535D01*
X115319326Y-102513256D01*
X115319327Y-102513259D01*
X115377818Y-102693277D01*
X115377821Y-102693284D01*
X115472467Y-102857216D01*
X115574185Y-102970185D01*
X115599129Y-102997888D01*
X115752265Y-103109148D01*
X115752270Y-103109151D01*
X115925192Y-103186142D01*
X115925197Y-103186144D01*
X116110354Y-103225500D01*
X116110355Y-103225500D01*
X116299644Y-103225500D01*
X116299646Y-103225500D01*
X116484803Y-103186144D01*
X116657730Y-103109151D01*
X116810871Y-102997888D01*
X116813788Y-102994647D01*
X116816600Y-102991526D01*
X116876087Y-102954879D01*
X116908748Y-102950500D01*
X119221252Y-102950500D01*
X119288291Y-102970185D01*
X119313400Y-102991526D01*
X119319126Y-102997885D01*
X119319130Y-102997889D01*
X119472265Y-103109148D01*
X119472270Y-103109151D01*
X119645192Y-103186142D01*
X119645197Y-103186144D01*
X119830354Y-103225500D01*
X119830355Y-103225500D01*
X120019644Y-103225500D01*
X120019646Y-103225500D01*
X120204803Y-103186144D01*
X120377730Y-103109151D01*
X120530871Y-102997888D01*
X120646022Y-102870000D01*
X134349540Y-102870000D01*
X134369326Y-103058256D01*
X134369327Y-103058259D01*
X134427818Y-103238277D01*
X134427821Y-103238284D01*
X134522467Y-103402216D01*
X134624185Y-103515185D01*
X134649129Y-103542888D01*
X134802265Y-103654148D01*
X134802270Y-103654151D01*
X134975192Y-103731142D01*
X134975197Y-103731144D01*
X135160354Y-103770500D01*
X135160355Y-103770500D01*
X135349644Y-103770500D01*
X135349646Y-103770500D01*
X135534803Y-103731144D01*
X135707730Y-103654151D01*
X135860871Y-103542888D01*
X135863788Y-103539647D01*
X135866600Y-103536526D01*
X135926087Y-103499879D01*
X135958748Y-103495500D01*
X136406684Y-103495500D01*
X136473723Y-103515185D01*
X136519478Y-103567989D01*
X136529422Y-103637147D01*
X136500397Y-103700703D01*
X136477807Y-103721075D01*
X136400858Y-103774954D01*
X136239954Y-103935858D01*
X136109432Y-104122265D01*
X136109431Y-104122267D01*
X136013261Y-104328502D01*
X136013258Y-104328511D01*
X135954366Y-104548302D01*
X135954364Y-104548313D01*
X135934532Y-104774998D01*
X135934532Y-104775001D01*
X135954364Y-105001686D01*
X135954366Y-105001697D01*
X136013258Y-105221488D01*
X136013261Y-105221497D01*
X136109431Y-105427732D01*
X136109432Y-105427734D01*
X136239954Y-105614141D01*
X136400858Y-105775045D01*
X136423530Y-105790920D01*
X136587266Y-105905568D01*
X136793504Y-106001739D01*
X136793509Y-106001740D01*
X136793511Y-106001741D01*
X136813556Y-106007112D01*
X137013308Y-106060635D01*
X137175230Y-106074801D01*
X137239998Y-106080468D01*
X137240000Y-106080468D01*
X137240002Y-106080468D01*
X137296673Y-106075509D01*
X137466692Y-106060635D01*
X137686496Y-106001739D01*
X137892734Y-105905568D01*
X138079139Y-105775047D01*
X138240047Y-105614139D01*
X138370568Y-105427734D01*
X138466739Y-105221496D01*
X138525635Y-105001692D01*
X138543532Y-104797127D01*
X138545468Y-104775001D01*
X138545468Y-104774998D01*
X138530391Y-104602669D01*
X138525635Y-104548308D01*
X138466739Y-104328504D01*
X138370568Y-104122266D01*
X138240047Y-103935861D01*
X138240045Y-103935858D01*
X138079141Y-103774954D01*
X138002193Y-103721075D01*
X137958568Y-103666499D01*
X137951374Y-103597000D01*
X137982897Y-103534645D01*
X138043126Y-103499231D01*
X138073316Y-103495500D01*
X143834548Y-103495500D01*
X143901587Y-103515185D01*
X143922229Y-103531819D01*
X144753181Y-104362771D01*
X144786666Y-104424094D01*
X144789500Y-104450452D01*
X144789500Y-106618393D01*
X144789500Y-106741607D01*
X144793296Y-106760689D01*
X144806911Y-106829142D01*
X144813537Y-106862451D01*
X144860688Y-106976286D01*
X144880100Y-107005338D01*
X144894914Y-107027507D01*
X144894915Y-107027509D01*
X144929141Y-107078733D01*
X145020586Y-107170178D01*
X145020608Y-107170198D01*
X146020586Y-108170176D01*
X146054071Y-108231499D01*
X146052681Y-108289948D01*
X146034365Y-108358307D01*
X146034364Y-108358313D01*
X146014532Y-108584999D01*
X146014532Y-108585001D01*
X146034364Y-108811686D01*
X146034366Y-108811697D01*
X146093258Y-109031488D01*
X146093261Y-109031497D01*
X146189431Y-109237732D01*
X146189432Y-109237734D01*
X146319954Y-109424141D01*
X146480858Y-109585045D01*
X146480861Y-109585047D01*
X146667266Y-109715568D01*
X146873504Y-109811739D01*
X147093308Y-109870635D01*
X147255230Y-109884801D01*
X147319998Y-109890468D01*
X147320000Y-109890468D01*
X147320002Y-109890468D01*
X147376673Y-109885509D01*
X147546692Y-109870635D01*
X147766496Y-109811739D01*
X147972734Y-109715568D01*
X148159139Y-109585047D01*
X148320047Y-109424139D01*
X148450568Y-109237734D01*
X148546739Y-109031496D01*
X148605635Y-108811692D01*
X148625468Y-108585000D01*
X148623916Y-108567266D01*
X148607608Y-108380861D01*
X148605635Y-108358308D01*
X148546739Y-108138504D01*
X148450568Y-107932266D01*
X148352839Y-107792693D01*
X148320045Y-107745858D01*
X148159141Y-107584954D01*
X147972734Y-107454432D01*
X147972732Y-107454431D01*
X147766497Y-107358261D01*
X147766488Y-107358258D01*
X147546697Y-107299366D01*
X147546693Y-107299365D01*
X147546692Y-107299365D01*
X147546691Y-107299364D01*
X147546686Y-107299364D01*
X147320002Y-107279532D01*
X147319999Y-107279532D01*
X147093313Y-107299364D01*
X147093307Y-107299365D01*
X147024948Y-107317681D01*
X146955098Y-107316016D01*
X146905176Y-107285586D01*
X146076819Y-106457229D01*
X146043334Y-106395906D01*
X146040500Y-106369548D01*
X146040500Y-105713340D01*
X146060185Y-105646301D01*
X146112989Y-105600546D01*
X146182147Y-105590602D01*
X146245703Y-105619627D01*
X146252181Y-105625659D01*
X146401179Y-105774657D01*
X146587517Y-105905134D01*
X146793673Y-106001265D01*
X146793682Y-106001269D01*
X146989999Y-106053872D01*
X146990000Y-106053871D01*
X146990000Y-105090686D01*
X146994394Y-105095080D01*
X147085606Y-105147741D01*
X147187339Y-105175000D01*
X147292661Y-105175000D01*
X147394394Y-105147741D01*
X147485606Y-105095080D01*
X147490000Y-105090686D01*
X147490000Y-106053872D01*
X147523096Y-106045004D01*
X151775233Y-106045004D01*
X151794273Y-106299079D01*
X151850968Y-106547477D01*
X151850973Y-106547494D01*
X151944058Y-106784671D01*
X151944057Y-106784671D01*
X152071454Y-107005327D01*
X152071461Y-107005338D01*
X152113452Y-107057991D01*
X152113453Y-107057992D01*
X152764152Y-106407292D01*
X152771049Y-106423942D01*
X152858599Y-106554970D01*
X152970030Y-106666401D01*
X153101058Y-106753951D01*
X153117705Y-106760846D01*
X152466813Y-107411738D01*
X152627616Y-107521371D01*
X152627624Y-107521376D01*
X152857176Y-107631921D01*
X152857174Y-107631921D01*
X153100652Y-107707024D01*
X153100658Y-107707026D01*
X153352595Y-107744999D01*
X153352604Y-107745000D01*
X153607396Y-107745000D01*
X153607404Y-107744999D01*
X153859341Y-107707026D01*
X153859347Y-107707024D01*
X154102824Y-107631921D01*
X154332376Y-107521376D01*
X154332377Y-107521375D01*
X154493185Y-107411738D01*
X153842294Y-106760846D01*
X153858942Y-106753951D01*
X153989970Y-106666401D01*
X154101401Y-106554970D01*
X154188951Y-106423942D01*
X154195846Y-106407294D01*
X154846544Y-107057992D01*
X154846546Y-107057991D01*
X154888544Y-107005330D01*
X155015941Y-106784671D01*
X155109026Y-106547494D01*
X155109031Y-106547477D01*
X155165726Y-106299079D01*
X155184767Y-106045004D01*
X155184767Y-106044995D01*
X155165726Y-105790920D01*
X155109031Y-105542522D01*
X155109026Y-105542505D01*
X155015941Y-105305328D01*
X155015942Y-105305328D01*
X154888545Y-105084672D01*
X154846545Y-105032006D01*
X154195846Y-105682705D01*
X154188951Y-105666058D01*
X154101401Y-105535030D01*
X153989970Y-105423599D01*
X153858942Y-105336049D01*
X153842293Y-105329152D01*
X154493185Y-104678260D01*
X154332384Y-104568628D01*
X154332376Y-104568623D01*
X154102823Y-104458078D01*
X154102825Y-104458078D01*
X153859347Y-104382975D01*
X153859341Y-104382973D01*
X153607404Y-104345000D01*
X153352595Y-104345000D01*
X153100658Y-104382973D01*
X153100652Y-104382975D01*
X152857175Y-104458078D01*
X152627622Y-104568625D01*
X152627609Y-104568632D01*
X152466813Y-104678259D01*
X153117706Y-105329152D01*
X153101058Y-105336049D01*
X152970030Y-105423599D01*
X152858599Y-105535030D01*
X152771049Y-105666058D01*
X152764152Y-105682706D01*
X152113452Y-105032006D01*
X152071457Y-105084667D01*
X151944058Y-105305328D01*
X151850973Y-105542505D01*
X151850968Y-105542522D01*
X151794273Y-105790920D01*
X151775233Y-106044995D01*
X151775233Y-106045004D01*
X147523096Y-106045004D01*
X147686317Y-106001269D01*
X147686326Y-106001265D01*
X147892482Y-105905134D01*
X148078820Y-105774657D01*
X148239657Y-105613820D01*
X148370134Y-105427482D01*
X148466265Y-105221326D01*
X148466269Y-105221317D01*
X148518872Y-105025000D01*
X147555686Y-105025000D01*
X147560080Y-105020606D01*
X147612741Y-104929394D01*
X147640000Y-104827661D01*
X147640000Y-104722339D01*
X147612741Y-104620606D01*
X147560080Y-104529394D01*
X147555686Y-104525000D01*
X148518872Y-104525000D01*
X148518872Y-104524999D01*
X148466269Y-104328682D01*
X148466265Y-104328673D01*
X148370134Y-104122517D01*
X148239657Y-103936179D01*
X148078820Y-103775342D01*
X147892482Y-103644865D01*
X147686328Y-103548734D01*
X147490000Y-103496127D01*
X147490000Y-104459314D01*
X147485606Y-104454920D01*
X147394394Y-104402259D01*
X147292661Y-104375000D01*
X147187339Y-104375000D01*
X147085606Y-104402259D01*
X146994394Y-104454920D01*
X146990000Y-104459314D01*
X146990000Y-103496127D01*
X146793671Y-103548734D01*
X146587517Y-103644865D01*
X146401179Y-103775342D01*
X146240340Y-103936181D01*
X146223754Y-103959869D01*
X146169176Y-104003493D01*
X146099678Y-104010685D01*
X146037324Y-103979162D01*
X146007619Y-103936197D01*
X145969312Y-103843717D01*
X145969311Y-103843714D01*
X145969309Y-103843711D01*
X145969307Y-103843707D01*
X145900858Y-103741267D01*
X145900855Y-103741263D01*
X145810637Y-103651045D01*
X145810606Y-103651016D01*
X144635198Y-102475608D01*
X144635178Y-102475586D01*
X144543733Y-102384141D01*
X144492509Y-102349915D01*
X144441286Y-102315688D01*
X144441283Y-102315686D01*
X144441280Y-102315685D01*
X144360792Y-102282347D01*
X144327454Y-102268538D01*
X144327455Y-102268538D01*
X144327452Y-102268537D01*
X144327448Y-102268536D01*
X144327444Y-102268535D01*
X144237459Y-102250635D01*
X144237450Y-102250635D01*
X144206607Y-102244500D01*
X144206606Y-102244500D01*
X137993316Y-102244500D01*
X137926277Y-102224815D01*
X137880522Y-102172011D01*
X137870578Y-102102853D01*
X137899603Y-102039297D01*
X137922193Y-102018925D01*
X137980651Y-101977992D01*
X137999139Y-101965047D01*
X138160047Y-101804139D01*
X138290568Y-101617734D01*
X138386739Y-101411496D01*
X138445635Y-101191692D01*
X138465468Y-100965000D01*
X138445635Y-100738308D01*
X138439389Y-100714999D01*
X146041127Y-100714999D01*
X146041128Y-100715000D01*
X147004314Y-100715000D01*
X146999920Y-100719394D01*
X146947259Y-100810606D01*
X146920000Y-100912339D01*
X146920000Y-101017661D01*
X146947259Y-101119394D01*
X146999920Y-101210606D01*
X147004314Y-101215000D01*
X146041128Y-101215000D01*
X146093730Y-101411317D01*
X146093734Y-101411326D01*
X146189865Y-101617482D01*
X146320342Y-101803820D01*
X146481179Y-101964657D01*
X146667517Y-102095134D01*
X146873673Y-102191265D01*
X146873682Y-102191269D01*
X147069999Y-102243872D01*
X147070000Y-102243871D01*
X147070000Y-101280686D01*
X147074394Y-101285080D01*
X147165606Y-101337741D01*
X147267339Y-101365000D01*
X147372661Y-101365000D01*
X147474394Y-101337741D01*
X147565606Y-101285080D01*
X147570000Y-101280686D01*
X147570000Y-102243872D01*
X147685701Y-102212870D01*
X151779500Y-102212870D01*
X151779501Y-102212876D01*
X151785908Y-102272483D01*
X151836202Y-102407328D01*
X151836206Y-102407335D01*
X151922452Y-102522544D01*
X151922455Y-102522547D01*
X152037664Y-102608793D01*
X152037671Y-102608797D01*
X152172517Y-102659091D01*
X152172516Y-102659091D01*
X152179444Y-102659835D01*
X152232127Y-102665500D01*
X154727872Y-102665499D01*
X154787483Y-102659091D01*
X154922331Y-102608796D01*
X155037546Y-102522546D01*
X155123796Y-102407331D01*
X155174091Y-102272483D01*
X155180500Y-102212873D01*
X155180499Y-99717128D01*
X155174091Y-99657517D01*
X155151989Y-99598259D01*
X155123797Y-99522671D01*
X155123793Y-99522664D01*
X155037547Y-99407455D01*
X155037544Y-99407452D01*
X154922335Y-99321206D01*
X154922328Y-99321202D01*
X154787482Y-99270908D01*
X154787483Y-99270908D01*
X154727883Y-99264501D01*
X154727881Y-99264500D01*
X154727873Y-99264500D01*
X154727864Y-99264500D01*
X152232129Y-99264500D01*
X152232123Y-99264501D01*
X152172516Y-99270908D01*
X152037671Y-99321202D01*
X152037664Y-99321206D01*
X151922455Y-99407452D01*
X151922452Y-99407455D01*
X151836206Y-99522664D01*
X151836202Y-99522671D01*
X151785908Y-99657517D01*
X151779501Y-99717116D01*
X151779501Y-99717123D01*
X151779500Y-99717135D01*
X151779500Y-102212870D01*
X147685701Y-102212870D01*
X147766317Y-102191269D01*
X147766326Y-102191265D01*
X147972482Y-102095134D01*
X148158820Y-101964657D01*
X148319657Y-101803820D01*
X148450134Y-101617482D01*
X148546265Y-101411326D01*
X148546269Y-101411317D01*
X148598872Y-101215000D01*
X147635686Y-101215000D01*
X147640080Y-101210606D01*
X147692741Y-101119394D01*
X147720000Y-101017661D01*
X147720000Y-100912339D01*
X147692741Y-100810606D01*
X147640080Y-100719394D01*
X147635686Y-100715000D01*
X148598872Y-100715000D01*
X148598872Y-100714999D01*
X148546269Y-100518682D01*
X148546265Y-100518673D01*
X148450134Y-100312517D01*
X148319657Y-100126179D01*
X148158820Y-99965342D01*
X147972482Y-99834865D01*
X147766328Y-99738734D01*
X147570000Y-99686127D01*
X147570000Y-100649314D01*
X147565606Y-100644920D01*
X147474394Y-100592259D01*
X147372661Y-100565000D01*
X147267339Y-100565000D01*
X147165606Y-100592259D01*
X147074394Y-100644920D01*
X147070000Y-100649314D01*
X147070000Y-99686127D01*
X146873671Y-99738734D01*
X146667517Y-99834865D01*
X146481179Y-99965342D01*
X146320342Y-100126179D01*
X146189865Y-100312517D01*
X146093734Y-100518673D01*
X146093730Y-100518682D01*
X146041127Y-100714999D01*
X138439389Y-100714999D01*
X138386739Y-100518504D01*
X138290568Y-100312266D01*
X138160047Y-100125861D01*
X138160045Y-100125858D01*
X137999141Y-99964954D01*
X137812734Y-99834432D01*
X137812732Y-99834431D01*
X137606497Y-99738261D01*
X137606488Y-99738258D01*
X137386697Y-99679366D01*
X137386693Y-99679365D01*
X137386692Y-99679365D01*
X137386691Y-99679364D01*
X137386686Y-99679364D01*
X137160002Y-99659532D01*
X137159998Y-99659532D01*
X136933313Y-99679364D01*
X136933302Y-99679366D01*
X136713511Y-99738258D01*
X136713502Y-99738261D01*
X136507267Y-99834431D01*
X136507265Y-99834432D01*
X136320858Y-99964954D01*
X136159954Y-100125858D01*
X136029432Y-100312265D01*
X136029431Y-100312267D01*
X135933261Y-100518502D01*
X135933258Y-100518511D01*
X135874366Y-100738302D01*
X135874364Y-100738313D01*
X135854532Y-100964998D01*
X135854532Y-100965001D01*
X135874364Y-101191686D01*
X135874366Y-101191697D01*
X135933258Y-101411488D01*
X135933261Y-101411497D01*
X136029431Y-101617732D01*
X136029432Y-101617734D01*
X136159954Y-101804141D01*
X136320858Y-101965045D01*
X136397807Y-102018925D01*
X136441432Y-102073501D01*
X136448626Y-102143000D01*
X136417103Y-102205355D01*
X136356874Y-102240769D01*
X136326684Y-102244500D01*
X135958748Y-102244500D01*
X135891709Y-102224815D01*
X135866600Y-102203474D01*
X135860873Y-102197114D01*
X135860869Y-102197110D01*
X135707734Y-102085851D01*
X135707729Y-102085848D01*
X135534807Y-102008857D01*
X135534802Y-102008855D01*
X135389001Y-101977865D01*
X135349646Y-101969500D01*
X135160354Y-101969500D01*
X135127897Y-101976398D01*
X134975197Y-102008855D01*
X134975192Y-102008857D01*
X134802270Y-102085848D01*
X134802265Y-102085851D01*
X134649129Y-102197111D01*
X134522466Y-102337785D01*
X134427821Y-102501715D01*
X134427818Y-102501722D01*
X134374604Y-102665499D01*
X134369326Y-102681744D01*
X134349540Y-102870000D01*
X120646022Y-102870000D01*
X120657533Y-102857216D01*
X120752179Y-102693284D01*
X120807494Y-102523042D01*
X120846930Y-102465369D01*
X120911289Y-102438170D01*
X120975859Y-102448082D01*
X120997621Y-102457771D01*
X121005197Y-102461144D01*
X121190354Y-102500500D01*
X121190355Y-102500500D01*
X121379644Y-102500500D01*
X121379646Y-102500500D01*
X121564803Y-102461144D01*
X121737730Y-102384151D01*
X121890871Y-102272888D01*
X122017533Y-102132216D01*
X122112179Y-101968284D01*
X122170674Y-101788256D01*
X122190460Y-101600000D01*
X122170674Y-101411744D01*
X122112179Y-101231716D01*
X122017533Y-101067784D01*
X121890871Y-100927112D01*
X121890870Y-100927111D01*
X121737734Y-100815851D01*
X121737729Y-100815848D01*
X121564807Y-100738857D01*
X121564802Y-100738855D01*
X121419001Y-100707865D01*
X121379646Y-100699500D01*
X121190354Y-100699500D01*
X121157897Y-100706398D01*
X121005197Y-100738855D01*
X121005192Y-100738857D01*
X120832270Y-100815848D01*
X120832265Y-100815851D01*
X120679130Y-100927110D01*
X120679126Y-100927114D01*
X120673400Y-100933474D01*
X120613913Y-100970121D01*
X120581252Y-100974500D01*
X107382741Y-100974500D01*
X107382721Y-100974499D01*
X107376607Y-100974499D01*
X107253394Y-100974499D01*
X107152597Y-100994548D01*
X107152592Y-100994548D01*
X107132549Y-100998536D01*
X107132547Y-100998536D01*
X107085397Y-101018067D01*
X107018719Y-101045685D01*
X107018717Y-101045686D01*
X106916266Y-101114141D01*
X106916263Y-101114144D01*
X106281269Y-101749140D01*
X106194144Y-101836264D01*
X106194138Y-101836272D01*
X106125690Y-101938708D01*
X106125688Y-101938713D01*
X106101517Y-101997069D01*
X106101517Y-101997070D01*
X106078537Y-102052547D01*
X106078535Y-102052555D01*
X106069979Y-102095566D01*
X106069980Y-102095567D01*
X106055278Y-102169485D01*
X106055274Y-102169503D01*
X106054500Y-102173388D01*
X106054500Y-104464547D01*
X106034815Y-104531586D01*
X106018181Y-104552228D01*
X105607180Y-104963229D01*
X105545857Y-104996714D01*
X105476165Y-104991730D01*
X105420232Y-104949858D01*
X105395815Y-104884394D01*
X105395499Y-104875548D01*
X105395499Y-104797129D01*
X105395498Y-104797123D01*
X105395497Y-104797116D01*
X105389091Y-104737517D01*
X105366989Y-104678259D01*
X105338797Y-104602671D01*
X105338793Y-104602664D01*
X105252547Y-104487455D01*
X105252544Y-104487452D01*
X105137335Y-104401206D01*
X105137328Y-104401202D01*
X105002482Y-104350908D01*
X105002483Y-104350908D01*
X104942883Y-104344501D01*
X104942881Y-104344500D01*
X104942873Y-104344500D01*
X104942864Y-104344500D01*
X102447129Y-104344500D01*
X102447123Y-104344501D01*
X102387516Y-104350908D01*
X102252671Y-104401202D01*
X102252664Y-104401206D01*
X102137455Y-104487452D01*
X102137452Y-104487455D01*
X102051206Y-104602664D01*
X102051202Y-104602671D01*
X102000908Y-104737517D01*
X101994501Y-104797116D01*
X101994501Y-104797123D01*
X101994500Y-104797135D01*
X101994500Y-107292870D01*
X100330000Y-107292870D01*
X100330000Y-100965004D01*
X101990233Y-100965004D01*
X102009273Y-101219079D01*
X102065968Y-101467477D01*
X102065973Y-101467494D01*
X102159058Y-101704671D01*
X102159057Y-101704671D01*
X102286454Y-101925327D01*
X102286461Y-101925338D01*
X102328452Y-101977991D01*
X102328453Y-101977992D01*
X102979152Y-101327292D01*
X102986049Y-101343942D01*
X103073599Y-101474970D01*
X103185030Y-101586401D01*
X103316058Y-101673951D01*
X103332705Y-101680846D01*
X102681813Y-102331738D01*
X102842616Y-102441371D01*
X102842624Y-102441376D01*
X103072176Y-102551921D01*
X103072174Y-102551921D01*
X103315652Y-102627024D01*
X103315658Y-102627026D01*
X103567595Y-102664999D01*
X103567604Y-102665000D01*
X103822396Y-102665000D01*
X103822404Y-102664999D01*
X104074341Y-102627026D01*
X104074347Y-102627024D01*
X104317824Y-102551921D01*
X104547376Y-102441376D01*
X104547377Y-102441375D01*
X104708185Y-102331738D01*
X104057294Y-101680846D01*
X104073942Y-101673951D01*
X104204970Y-101586401D01*
X104316401Y-101474970D01*
X104403951Y-101343942D01*
X104410846Y-101327294D01*
X105061544Y-101977992D01*
X105061546Y-101977991D01*
X105103544Y-101925330D01*
X105230941Y-101704671D01*
X105324026Y-101467494D01*
X105324031Y-101467477D01*
X105380726Y-101219079D01*
X105399767Y-100965004D01*
X105399767Y-100964995D01*
X105380726Y-100710920D01*
X105324031Y-100462522D01*
X105324026Y-100462505D01*
X105230941Y-100225328D01*
X105230942Y-100225328D01*
X105103545Y-100004672D01*
X105061545Y-99952006D01*
X104410846Y-100602705D01*
X104403951Y-100586058D01*
X104316401Y-100455030D01*
X104204970Y-100343599D01*
X104073942Y-100256049D01*
X104057293Y-100249152D01*
X104708185Y-99598260D01*
X104547384Y-99488628D01*
X104547376Y-99488623D01*
X104317823Y-99378078D01*
X104317825Y-99378078D01*
X104074347Y-99302975D01*
X104074341Y-99302973D01*
X103822404Y-99265000D01*
X103567595Y-99265000D01*
X103315658Y-99302973D01*
X103315652Y-99302975D01*
X103072175Y-99378078D01*
X102842622Y-99488625D01*
X102842609Y-99488632D01*
X102681813Y-99598259D01*
X103332706Y-100249152D01*
X103316058Y-100256049D01*
X103185030Y-100343599D01*
X103073599Y-100455030D01*
X102986049Y-100586058D01*
X102979152Y-100602706D01*
X102328452Y-99952006D01*
X102286457Y-100004667D01*
X102159058Y-100225328D01*
X102065973Y-100462505D01*
X102065968Y-100462522D01*
X102009273Y-100710920D01*
X101990233Y-100964995D01*
X101990233Y-100965004D01*
X100330000Y-100965004D01*
X100330000Y-97853813D01*
X100348738Y-97790000D01*
X115299540Y-97790000D01*
X115319326Y-97978256D01*
X115319327Y-97978259D01*
X115377818Y-98158277D01*
X115377821Y-98158284D01*
X115472467Y-98322216D01*
X115574185Y-98435185D01*
X115599129Y-98462888D01*
X115752265Y-98574148D01*
X115752270Y-98574151D01*
X115925192Y-98651142D01*
X115925197Y-98651144D01*
X116110354Y-98690500D01*
X116110355Y-98690500D01*
X116299644Y-98690500D01*
X116299646Y-98690500D01*
X116484803Y-98651144D01*
X116657730Y-98574151D01*
X116810871Y-98462888D01*
X116813788Y-98459647D01*
X116816600Y-98456526D01*
X116876087Y-98419879D01*
X116908748Y-98415500D01*
X125026252Y-98415500D01*
X125093291Y-98435185D01*
X125118400Y-98456526D01*
X125124126Y-98462885D01*
X125124130Y-98462889D01*
X125277265Y-98574148D01*
X125277270Y-98574151D01*
X125450192Y-98651142D01*
X125450197Y-98651144D01*
X125635354Y-98690500D01*
X125635355Y-98690500D01*
X125824644Y-98690500D01*
X125824646Y-98690500D01*
X126009803Y-98651144D01*
X126182730Y-98574151D01*
X126335871Y-98462888D01*
X126462533Y-98322216D01*
X126557179Y-98158284D01*
X126615674Y-97978256D01*
X126635460Y-97790000D01*
X126615674Y-97601744D01*
X126557179Y-97421716D01*
X126462533Y-97257784D01*
X126335871Y-97117112D01*
X126335870Y-97117111D01*
X126182734Y-97005851D01*
X126182729Y-97005848D01*
X126009807Y-96928857D01*
X126009802Y-96928855D01*
X125864001Y-96897865D01*
X125824646Y-96889500D01*
X125635354Y-96889500D01*
X125602897Y-96896398D01*
X125450197Y-96928855D01*
X125450192Y-96928857D01*
X125277270Y-97005848D01*
X125277265Y-97005851D01*
X125124130Y-97117110D01*
X125124126Y-97117114D01*
X125118400Y-97123474D01*
X125058913Y-97160121D01*
X125026252Y-97164500D01*
X116908748Y-97164500D01*
X116841709Y-97144815D01*
X116816600Y-97123474D01*
X116810873Y-97117114D01*
X116810869Y-97117110D01*
X116657734Y-97005851D01*
X116657729Y-97005848D01*
X116484807Y-96928857D01*
X116484802Y-96928855D01*
X116339001Y-96897865D01*
X116299646Y-96889500D01*
X116110354Y-96889500D01*
X116077897Y-96896398D01*
X115925197Y-96928855D01*
X115925192Y-96928857D01*
X115752270Y-97005848D01*
X115752265Y-97005851D01*
X115599129Y-97117111D01*
X115472466Y-97257785D01*
X115377821Y-97421715D01*
X115377818Y-97421722D01*
X115319327Y-97601740D01*
X115319326Y-97601744D01*
X115299540Y-97790000D01*
X100348738Y-97790000D01*
X100349685Y-97786774D01*
X100381926Y-97752910D01*
X104775000Y-94615000D01*
X104775000Y-90170001D01*
X116709532Y-90170001D01*
X116729364Y-90396686D01*
X116729366Y-90396697D01*
X116788258Y-90616488D01*
X116788261Y-90616497D01*
X116884431Y-90822732D01*
X116884432Y-90822734D01*
X117014954Y-91009141D01*
X117175858Y-91170045D01*
X117175861Y-91170047D01*
X117362266Y-91300568D01*
X117568504Y-91396739D01*
X117788308Y-91455635D01*
X117950230Y-91469801D01*
X118014998Y-91475468D01*
X118015000Y-91475468D01*
X118015002Y-91475468D01*
X118071673Y-91470509D01*
X118241692Y-91455635D01*
X118461496Y-91396739D01*
X118667734Y-91300568D01*
X118854139Y-91170047D01*
X119015047Y-91009139D01*
X119145568Y-90822734D01*
X119241739Y-90616496D01*
X119300635Y-90396692D01*
X119320468Y-90170000D01*
X119300635Y-89943308D01*
X119241739Y-89723504D01*
X119145568Y-89517266D01*
X119015047Y-89330861D01*
X119015045Y-89330858D01*
X118854141Y-89169954D01*
X118667734Y-89039432D01*
X118667732Y-89039431D01*
X118461497Y-88943261D01*
X118461488Y-88943258D01*
X118241697Y-88884366D01*
X118241693Y-88884365D01*
X118241692Y-88884365D01*
X118241691Y-88884364D01*
X118241686Y-88884364D01*
X118015002Y-88864532D01*
X118014998Y-88864532D01*
X117788313Y-88884364D01*
X117788302Y-88884366D01*
X117568511Y-88943258D01*
X117568502Y-88943261D01*
X117362267Y-89039431D01*
X117362265Y-89039432D01*
X117175858Y-89169954D01*
X117014954Y-89330858D01*
X116884432Y-89517265D01*
X116884431Y-89517267D01*
X116788261Y-89723502D01*
X116788258Y-89723511D01*
X116729366Y-89943302D01*
X116729364Y-89943313D01*
X116709532Y-90169998D01*
X116709532Y-90170001D01*
X104775000Y-90170001D01*
X104775000Y-85849000D01*
X104794685Y-85781961D01*
X104847489Y-85736206D01*
X104899000Y-85725000D01*
X125735500Y-85725000D01*
X125802539Y-85744685D01*
G37*
G04 #@! TD.AperFunction*
G04 #@! TA.AperFunction,Conductor*
G36*
X140913039Y-85744685D02*
G01*
X140958794Y-85797489D01*
X140970000Y-85849000D01*
X140970000Y-92586000D01*
X140950315Y-92653039D01*
X140897511Y-92698794D01*
X140846000Y-92710000D01*
X126489000Y-92710000D01*
X126421961Y-92690315D01*
X126376206Y-92637511D01*
X126365000Y-92586000D01*
X126365000Y-89919999D01*
X126896127Y-89919999D01*
X126896128Y-89920000D01*
X127859314Y-89920000D01*
X127854920Y-89924394D01*
X127802259Y-90015606D01*
X127775000Y-90117339D01*
X127775000Y-90222661D01*
X127802259Y-90324394D01*
X127854920Y-90415606D01*
X127859314Y-90420000D01*
X126896128Y-90420000D01*
X126948730Y-90616317D01*
X126948734Y-90616326D01*
X127044865Y-90822482D01*
X127175342Y-91008820D01*
X127336179Y-91169657D01*
X127522517Y-91300134D01*
X127728673Y-91396265D01*
X127728682Y-91396269D01*
X127924999Y-91448872D01*
X127925000Y-91448871D01*
X127925000Y-90485686D01*
X127929394Y-90490080D01*
X128020606Y-90542741D01*
X128122339Y-90570000D01*
X128227661Y-90570000D01*
X128329394Y-90542741D01*
X128420606Y-90490080D01*
X128425000Y-90485686D01*
X128425000Y-91448872D01*
X128621317Y-91396269D01*
X128621326Y-91396265D01*
X128827482Y-91300134D01*
X129013820Y-91169657D01*
X129174657Y-91008820D01*
X129305134Y-90822482D01*
X129401265Y-90616326D01*
X129401269Y-90616317D01*
X129453872Y-90420000D01*
X128490686Y-90420000D01*
X128495080Y-90415606D01*
X128547741Y-90324394D01*
X128575000Y-90222661D01*
X128575000Y-90117339D01*
X128547741Y-90015606D01*
X128495080Y-89924394D01*
X128490686Y-89920000D01*
X129453872Y-89920000D01*
X129453872Y-89919999D01*
X129401269Y-89723682D01*
X129401265Y-89723673D01*
X129354260Y-89622870D01*
X131897000Y-89622870D01*
X131897001Y-89622876D01*
X131903408Y-89682483D01*
X131953702Y-89817328D01*
X131953706Y-89817335D01*
X132039952Y-89932544D01*
X132039955Y-89932547D01*
X132155164Y-90018793D01*
X132155171Y-90018797D01*
X132290017Y-90069091D01*
X132290016Y-90069091D01*
X132296944Y-90069835D01*
X132349627Y-90075500D01*
X134350372Y-90075499D01*
X134409983Y-90069091D01*
X134544831Y-90018796D01*
X134660046Y-89932546D01*
X134746296Y-89817331D01*
X134756690Y-89789460D01*
X134798560Y-89733527D01*
X134864023Y-89709108D01*
X134932297Y-89723958D01*
X134945746Y-89732465D01*
X135128462Y-89865217D01*
X135235978Y-89919999D01*
X135332244Y-89969049D01*
X135549751Y-90039721D01*
X135549752Y-90039721D01*
X135549755Y-90039722D01*
X135775646Y-90075500D01*
X135775647Y-90075500D01*
X136004353Y-90075500D01*
X136004354Y-90075500D01*
X136230245Y-90039722D01*
X136230248Y-90039721D01*
X136230249Y-90039721D01*
X136447755Y-89969049D01*
X136447755Y-89969048D01*
X136447758Y-89969048D01*
X136651538Y-89865217D01*
X136836566Y-89730786D01*
X136998286Y-89569066D01*
X137059992Y-89484134D01*
X137115319Y-89441470D01*
X137184932Y-89435491D01*
X137246727Y-89468096D01*
X137260626Y-89484135D01*
X137322097Y-89568741D01*
X137322097Y-89568742D01*
X137483757Y-89730402D01*
X137668723Y-89864788D01*
X137872429Y-89968582D01*
X138089871Y-90039234D01*
X138180000Y-90053509D01*
X138180000Y-89065747D01*
X138217708Y-89087518D01*
X138357591Y-89125000D01*
X138502409Y-89125000D01*
X138642292Y-89087518D01*
X138680000Y-89065747D01*
X138680000Y-90053508D01*
X138770128Y-90039234D01*
X138987570Y-89968582D01*
X139191276Y-89864788D01*
X139376242Y-89730402D01*
X139537902Y-89568742D01*
X139672288Y-89383776D01*
X139776082Y-89180070D01*
X139846734Y-88962628D01*
X139868532Y-88825000D01*
X138920748Y-88825000D01*
X138942518Y-88787292D01*
X138980000Y-88647409D01*
X138980000Y-88502591D01*
X138942518Y-88362708D01*
X138920748Y-88325000D01*
X139868532Y-88325000D01*
X139846734Y-88187371D01*
X139776082Y-87969929D01*
X139672288Y-87766223D01*
X139537902Y-87581257D01*
X139376242Y-87419597D01*
X139191276Y-87285211D01*
X138987568Y-87181417D01*
X138770124Y-87110765D01*
X138680000Y-87096490D01*
X138680000Y-88084252D01*
X138642292Y-88062482D01*
X138502409Y-88025000D01*
X138357591Y-88025000D01*
X138217708Y-88062482D01*
X138180000Y-88084252D01*
X138180000Y-87096490D01*
X138179999Y-87096490D01*
X138089875Y-87110765D01*
X137872431Y-87181417D01*
X137668723Y-87285211D01*
X137483757Y-87419597D01*
X137322097Y-87581257D01*
X137260627Y-87665864D01*
X137205297Y-87708529D01*
X137135684Y-87714508D01*
X137073889Y-87681902D01*
X137059991Y-87665864D01*
X136998286Y-87580934D01*
X136836566Y-87419214D01*
X136651538Y-87284783D01*
X136447755Y-87180950D01*
X136230248Y-87110278D01*
X136044812Y-87080908D01*
X136004354Y-87074500D01*
X135775646Y-87074500D01*
X135735188Y-87080908D01*
X135549753Y-87110278D01*
X135549750Y-87110278D01*
X135332244Y-87180950D01*
X135128461Y-87284783D01*
X134945759Y-87417525D01*
X134879952Y-87441005D01*
X134811898Y-87425180D01*
X134763203Y-87375074D01*
X134756690Y-87360538D01*
X134746296Y-87332669D01*
X134746293Y-87332664D01*
X134660047Y-87217455D01*
X134660044Y-87217452D01*
X134544835Y-87131206D01*
X134544828Y-87131202D01*
X134409982Y-87080908D01*
X134409983Y-87080908D01*
X134350383Y-87074501D01*
X134350381Y-87074500D01*
X134350373Y-87074500D01*
X134350364Y-87074500D01*
X132349629Y-87074500D01*
X132349623Y-87074501D01*
X132290016Y-87080908D01*
X132155171Y-87131202D01*
X132155164Y-87131206D01*
X132039955Y-87217452D01*
X132039952Y-87217455D01*
X131953706Y-87332664D01*
X131953702Y-87332671D01*
X131903408Y-87467517D01*
X131897001Y-87527116D01*
X131897000Y-87527135D01*
X131897000Y-89622870D01*
X129354260Y-89622870D01*
X129305134Y-89517517D01*
X129174657Y-89331179D01*
X129013820Y-89170342D01*
X128827482Y-89039865D01*
X128621328Y-88943734D01*
X128425000Y-88891127D01*
X128425000Y-89854314D01*
X128420606Y-89849920D01*
X128329394Y-89797259D01*
X128227661Y-89770000D01*
X128122339Y-89770000D01*
X128020606Y-89797259D01*
X127929394Y-89849920D01*
X127925000Y-89854314D01*
X127925000Y-88891127D01*
X127728671Y-88943734D01*
X127522517Y-89039865D01*
X127336179Y-89170342D01*
X127175342Y-89331179D01*
X127044865Y-89517517D01*
X126948734Y-89723673D01*
X126948730Y-89723682D01*
X126896127Y-89919999D01*
X126365000Y-89919999D01*
X126365000Y-85849000D01*
X126384685Y-85781961D01*
X126437489Y-85736206D01*
X126489000Y-85725000D01*
X140846000Y-85725000D01*
X140913039Y-85744685D01*
G37*
G04 #@! TD.AperFunction*
M02*
