M48
; DRILL file {KiCad 8.0.0} date 2024-03-03T11:25:05+1100
; FORMAT={-:-/ absolute / metric / decimal}
; #@! TF.CreationDate,2024-03-03T11:25:05+11:00
; #@! TF.GenerationSoftware,Kicad,Pcbnew,8.0.0
; #@! TF.FileFunction,Plated,1,2,PTH
FMAT,2
METRIC
; #@! TA.AperFunction,Plated,PTH,ViaDrill
T1C0.400
; #@! TA.AperFunction,Plated,PTH,ComponentDrill
T2C0.800
; #@! TA.AperFunction,Plated,PTH,ComponentDrill
T3C1.100
; #@! TA.AperFunction,Plated,PTH,ComponentDrill
T4C1.600
%
G90
G05
T1
X116.205Y-97.79
X116.205Y-102.325
X119.925Y-102.325
X121.285Y-101.6
X121.285Y-106.68
X125.73Y-97.79
X126.0Y-105.41
X130.175Y-109.22
X135.255Y-102.87
T2
X108.585Y-109.22
X108.665Y-104.775
X118.015Y-90.17
X118.665Y-104.775
X118.745Y-109.22
X122.555Y-113.03
X122.555Y-116.84
X128.175Y-90.17
X132.715Y-113.03
X132.715Y-116.84
X137.16Y-100.965
X137.16Y-108.585
X137.16Y-112.395
X137.16Y-116.205
X137.16Y-120.015
X137.24Y-104.775
X147.24Y-104.775
X147.32Y-100.965
X147.32Y-108.585
X147.32Y-112.395
X147.32Y-116.205
X147.32Y-120.015
T3
X133.35Y-88.575
X135.89Y-88.575
X138.43Y-88.575
T4
X103.695Y-100.965
X103.695Y-106.045
X153.48Y-100.965
X153.48Y-106.045
M30
