%TF.GenerationSoftware,KiCad,Pcbnew,8.0.0*%
%TF.CreationDate,2024-03-03T11:25:23+11:00*%
%TF.ProjectId,BatteryCharger,42617474-6572-4794-9368-61726765722e,rev?*%
%TF.SameCoordinates,Original*%
%TF.FileFunction,Drillmap*%
%TF.FilePolarity,Positive*%
%FSLAX45Y45*%
G04 Gerber Fmt 4.5, Leading zero omitted, Abs format (unit mm)*
G04 Created by KiCad (PCBNEW 8.0.0) date 2024-03-03 11:25:23*
%MOMM*%
%LPD*%
G01*
G04 APERTURE LIST*
%ADD10C,0.100000*%
%ADD11C,0.200000*%
%ADD12C,0.110000*%
%ADD13C,0.160000*%
G04 APERTURE END LIST*
D10*
X9400000Y-8500000D02*
X16300000Y-8500000D01*
X16300000Y-12400000D01*
X9400000Y-12400000D01*
X9400000Y-8500000D01*
D11*
D10*
X11600500Y-9759000D02*
X11640500Y-9799000D01*
X11640500Y-9759000D02*
X11600500Y-9799000D01*
X11600500Y-10212500D02*
X11640500Y-10252500D01*
X11640500Y-10212500D02*
X11600500Y-10252500D01*
X11972500Y-10212500D02*
X12012500Y-10252500D01*
X12012500Y-10212500D02*
X11972500Y-10252500D01*
X12108500Y-10140000D02*
X12148500Y-10180000D01*
X12148500Y-10140000D02*
X12108500Y-10180000D01*
X12108500Y-10648000D02*
X12148500Y-10688000D01*
X12148500Y-10648000D02*
X12108500Y-10688000D01*
X12553000Y-9759000D02*
X12593000Y-9799000D01*
X12593000Y-9759000D02*
X12553000Y-9799000D01*
X12580000Y-10521000D02*
X12620000Y-10561000D01*
X12620000Y-10521000D02*
X12580000Y-10561000D01*
X12997500Y-10902000D02*
X13037500Y-10942000D01*
X13037500Y-10902000D02*
X12997500Y-10942000D01*
X13505500Y-10267000D02*
X13545500Y-10307000D01*
X13545500Y-10267000D02*
X13505500Y-10307000D01*
X10898500Y-10922000D02*
G75*
G02*
X10818500Y-10922000I-40000J0D01*
G01*
X10818500Y-10922000D02*
G75*
G02*
X10898500Y-10922000I40000J0D01*
G01*
X10906500Y-10477500D02*
G75*
G02*
X10826500Y-10477500I-40000J0D01*
G01*
X10826500Y-10477500D02*
G75*
G02*
X10906500Y-10477500I40000J0D01*
G01*
X11841500Y-9017000D02*
G75*
G02*
X11761500Y-9017000I-40000J0D01*
G01*
X11761500Y-9017000D02*
G75*
G02*
X11841500Y-9017000I40000J0D01*
G01*
X11906500Y-10477500D02*
G75*
G02*
X11826500Y-10477500I-40000J0D01*
G01*
X11826500Y-10477500D02*
G75*
G02*
X11906500Y-10477500I40000J0D01*
G01*
X11914500Y-10922000D02*
G75*
G02*
X11834500Y-10922000I-40000J0D01*
G01*
X11834500Y-10922000D02*
G75*
G02*
X11914500Y-10922000I40000J0D01*
G01*
X12295500Y-11303000D02*
G75*
G02*
X12215500Y-11303000I-40000J0D01*
G01*
X12215500Y-11303000D02*
G75*
G02*
X12295500Y-11303000I40000J0D01*
G01*
X12295500Y-11684000D02*
G75*
G02*
X12215500Y-11684000I-40000J0D01*
G01*
X12215500Y-11684000D02*
G75*
G02*
X12295500Y-11684000I40000J0D01*
G01*
X12857500Y-9017000D02*
G75*
G02*
X12777500Y-9017000I-40000J0D01*
G01*
X12777500Y-9017000D02*
G75*
G02*
X12857500Y-9017000I40000J0D01*
G01*
X13311500Y-11303000D02*
G75*
G02*
X13231500Y-11303000I-40000J0D01*
G01*
X13231500Y-11303000D02*
G75*
G02*
X13311500Y-11303000I40000J0D01*
G01*
X13311500Y-11684000D02*
G75*
G02*
X13231500Y-11684000I-40000J0D01*
G01*
X13231500Y-11684000D02*
G75*
G02*
X13311500Y-11684000I40000J0D01*
G01*
X13756000Y-10096500D02*
G75*
G02*
X13676000Y-10096500I-40000J0D01*
G01*
X13676000Y-10096500D02*
G75*
G02*
X13756000Y-10096500I40000J0D01*
G01*
X13756000Y-10858500D02*
G75*
G02*
X13676000Y-10858500I-40000J0D01*
G01*
X13676000Y-10858500D02*
G75*
G02*
X13756000Y-10858500I40000J0D01*
G01*
X13756000Y-11239500D02*
G75*
G02*
X13676000Y-11239500I-40000J0D01*
G01*
X13676000Y-11239500D02*
G75*
G02*
X13756000Y-11239500I40000J0D01*
G01*
X13756000Y-11620500D02*
G75*
G02*
X13676000Y-11620500I-40000J0D01*
G01*
X13676000Y-11620500D02*
G75*
G02*
X13756000Y-11620500I40000J0D01*
G01*
X13756000Y-12001500D02*
G75*
G02*
X13676000Y-12001500I-40000J0D01*
G01*
X13676000Y-12001500D02*
G75*
G02*
X13756000Y-12001500I40000J0D01*
G01*
X13764000Y-10477500D02*
G75*
G02*
X13684000Y-10477500I-40000J0D01*
G01*
X13684000Y-10477500D02*
G75*
G02*
X13764000Y-10477500I40000J0D01*
G01*
X14764000Y-10477500D02*
G75*
G02*
X14684000Y-10477500I-40000J0D01*
G01*
X14684000Y-10477500D02*
G75*
G02*
X14764000Y-10477500I40000J0D01*
G01*
X14772000Y-10096500D02*
G75*
G02*
X14692000Y-10096500I-40000J0D01*
G01*
X14692000Y-10096500D02*
G75*
G02*
X14772000Y-10096500I40000J0D01*
G01*
X14772000Y-10858500D02*
G75*
G02*
X14692000Y-10858500I-40000J0D01*
G01*
X14692000Y-10858500D02*
G75*
G02*
X14772000Y-10858500I40000J0D01*
G01*
X14772000Y-11239500D02*
G75*
G02*
X14692000Y-11239500I-40000J0D01*
G01*
X14692000Y-11239500D02*
G75*
G02*
X14772000Y-11239500I40000J0D01*
G01*
X14772000Y-11620500D02*
G75*
G02*
X14692000Y-11620500I-40000J0D01*
G01*
X14692000Y-11620500D02*
G75*
G02*
X14772000Y-11620500I40000J0D01*
G01*
X14772000Y-12001500D02*
G75*
G02*
X14692000Y-12001500I-40000J0D01*
G01*
X14692000Y-12001500D02*
G75*
G02*
X14772000Y-12001500I40000J0D01*
G01*
D12*
X13335000Y-8802500D02*
X13335000Y-8912500D01*
X13280000Y-8857500D02*
X13390000Y-8857500D01*
X13589000Y-8802500D02*
X13589000Y-8912500D01*
X13534000Y-8857500D02*
X13644000Y-8857500D01*
X13843000Y-8802500D02*
X13843000Y-8912500D01*
X13788000Y-8857500D02*
X13898000Y-8857500D01*
D13*
X10426069Y-10153069D02*
X10426069Y-10039931D01*
X10312931Y-10039931D01*
X10312931Y-10153069D01*
X10426069Y-10153069D01*
X10426069Y-10661069D02*
X10426069Y-10547931D01*
X10312931Y-10547931D01*
X10312931Y-10661069D01*
X10426069Y-10661069D01*
X15404569Y-10153069D02*
X15404569Y-10039931D01*
X15291431Y-10039931D01*
X15291431Y-10153069D01*
X15404569Y-10153069D01*
X15404569Y-10661069D02*
X15404569Y-10547931D01*
X15291431Y-10547931D01*
X15291431Y-10661069D01*
X15404569Y-10661069D01*
D11*
X9655777Y-12716484D02*
X9655777Y-12516484D01*
X9655777Y-12516484D02*
X9703396Y-12516484D01*
X9703396Y-12516484D02*
X9731967Y-12526008D01*
X9731967Y-12526008D02*
X9751015Y-12545055D01*
X9751015Y-12545055D02*
X9760539Y-12564103D01*
X9760539Y-12564103D02*
X9770063Y-12602198D01*
X9770063Y-12602198D02*
X9770063Y-12630769D01*
X9770063Y-12630769D02*
X9760539Y-12668865D01*
X9760539Y-12668865D02*
X9751015Y-12687912D01*
X9751015Y-12687912D02*
X9731967Y-12706960D01*
X9731967Y-12706960D02*
X9703396Y-12716484D01*
X9703396Y-12716484D02*
X9655777Y-12716484D01*
X9855777Y-12716484D02*
X9855777Y-12583150D01*
X9855777Y-12621246D02*
X9865301Y-12602198D01*
X9865301Y-12602198D02*
X9874824Y-12592674D01*
X9874824Y-12592674D02*
X9893872Y-12583150D01*
X9893872Y-12583150D02*
X9912920Y-12583150D01*
X9979586Y-12716484D02*
X9979586Y-12583150D01*
X9979586Y-12516484D02*
X9970063Y-12526008D01*
X9970063Y-12526008D02*
X9979586Y-12535531D01*
X9979586Y-12535531D02*
X9989110Y-12526008D01*
X9989110Y-12526008D02*
X9979586Y-12516484D01*
X9979586Y-12516484D02*
X9979586Y-12535531D01*
X10103396Y-12716484D02*
X10084348Y-12706960D01*
X10084348Y-12706960D02*
X10074824Y-12687912D01*
X10074824Y-12687912D02*
X10074824Y-12516484D01*
X10208158Y-12716484D02*
X10189110Y-12706960D01*
X10189110Y-12706960D02*
X10179586Y-12687912D01*
X10179586Y-12687912D02*
X10179586Y-12516484D01*
X10436729Y-12716484D02*
X10436729Y-12516484D01*
X10436729Y-12516484D02*
X10503396Y-12659341D01*
X10503396Y-12659341D02*
X10570063Y-12516484D01*
X10570063Y-12516484D02*
X10570063Y-12716484D01*
X10751015Y-12716484D02*
X10751015Y-12611722D01*
X10751015Y-12611722D02*
X10741491Y-12592674D01*
X10741491Y-12592674D02*
X10722444Y-12583150D01*
X10722444Y-12583150D02*
X10684348Y-12583150D01*
X10684348Y-12583150D02*
X10665301Y-12592674D01*
X10751015Y-12706960D02*
X10731967Y-12716484D01*
X10731967Y-12716484D02*
X10684348Y-12716484D01*
X10684348Y-12716484D02*
X10665301Y-12706960D01*
X10665301Y-12706960D02*
X10655777Y-12687912D01*
X10655777Y-12687912D02*
X10655777Y-12668865D01*
X10655777Y-12668865D02*
X10665301Y-12649817D01*
X10665301Y-12649817D02*
X10684348Y-12640293D01*
X10684348Y-12640293D02*
X10731967Y-12640293D01*
X10731967Y-12640293D02*
X10751015Y-12630769D01*
X10846253Y-12583150D02*
X10846253Y-12783150D01*
X10846253Y-12592674D02*
X10865301Y-12583150D01*
X10865301Y-12583150D02*
X10903396Y-12583150D01*
X10903396Y-12583150D02*
X10922444Y-12592674D01*
X10922444Y-12592674D02*
X10931967Y-12602198D01*
X10931967Y-12602198D02*
X10941491Y-12621246D01*
X10941491Y-12621246D02*
X10941491Y-12678388D01*
X10941491Y-12678388D02*
X10931967Y-12697436D01*
X10931967Y-12697436D02*
X10922444Y-12706960D01*
X10922444Y-12706960D02*
X10903396Y-12716484D01*
X10903396Y-12716484D02*
X10865301Y-12716484D01*
X10865301Y-12716484D02*
X10846253Y-12706960D01*
X11027205Y-12697436D02*
X11036729Y-12706960D01*
X11036729Y-12706960D02*
X11027205Y-12716484D01*
X11027205Y-12716484D02*
X11017682Y-12706960D01*
X11017682Y-12706960D02*
X11027205Y-12697436D01*
X11027205Y-12697436D02*
X11027205Y-12716484D01*
X11027205Y-12592674D02*
X11036729Y-12602198D01*
X11036729Y-12602198D02*
X11027205Y-12611722D01*
X11027205Y-12611722D02*
X11017682Y-12602198D01*
X11017682Y-12602198D02*
X11027205Y-12592674D01*
X11027205Y-12592674D02*
X11027205Y-12611722D01*
D10*
X9355000Y-13025000D02*
X9395000Y-13065000D01*
X9395000Y-13025000D02*
X9355000Y-13065000D01*
D11*
X9693872Y-12936484D02*
X9712920Y-12936484D01*
X9712920Y-12936484D02*
X9731967Y-12946008D01*
X9731967Y-12946008D02*
X9741491Y-12955531D01*
X9741491Y-12955531D02*
X9751015Y-12974579D01*
X9751015Y-12974579D02*
X9760539Y-13012674D01*
X9760539Y-13012674D02*
X9760539Y-13060293D01*
X9760539Y-13060293D02*
X9751015Y-13098388D01*
X9751015Y-13098388D02*
X9741491Y-13117436D01*
X9741491Y-13117436D02*
X9731967Y-13126960D01*
X9731967Y-13126960D02*
X9712920Y-13136484D01*
X9712920Y-13136484D02*
X9693872Y-13136484D01*
X9693872Y-13136484D02*
X9674824Y-13126960D01*
X9674824Y-13126960D02*
X9665301Y-13117436D01*
X9665301Y-13117436D02*
X9655777Y-13098388D01*
X9655777Y-13098388D02*
X9646253Y-13060293D01*
X9646253Y-13060293D02*
X9646253Y-13012674D01*
X9646253Y-13012674D02*
X9655777Y-12974579D01*
X9655777Y-12974579D02*
X9665301Y-12955531D01*
X9665301Y-12955531D02*
X9674824Y-12946008D01*
X9674824Y-12946008D02*
X9693872Y-12936484D01*
X9846253Y-13117436D02*
X9855777Y-13126960D01*
X9855777Y-13126960D02*
X9846253Y-13136484D01*
X9846253Y-13136484D02*
X9836729Y-13126960D01*
X9836729Y-13126960D02*
X9846253Y-13117436D01*
X9846253Y-13117436D02*
X9846253Y-13136484D01*
X10027205Y-13003150D02*
X10027205Y-13136484D01*
X9979586Y-12926960D02*
X9931967Y-13069817D01*
X9931967Y-13069817D02*
X10055777Y-13069817D01*
X10170063Y-12936484D02*
X10189110Y-12936484D01*
X10189110Y-12936484D02*
X10208158Y-12946008D01*
X10208158Y-12946008D02*
X10217682Y-12955531D01*
X10217682Y-12955531D02*
X10227205Y-12974579D01*
X10227205Y-12974579D02*
X10236729Y-13012674D01*
X10236729Y-13012674D02*
X10236729Y-13060293D01*
X10236729Y-13060293D02*
X10227205Y-13098388D01*
X10227205Y-13098388D02*
X10217682Y-13117436D01*
X10217682Y-13117436D02*
X10208158Y-13126960D01*
X10208158Y-13126960D02*
X10189110Y-13136484D01*
X10189110Y-13136484D02*
X10170063Y-13136484D01*
X10170063Y-13136484D02*
X10151015Y-13126960D01*
X10151015Y-13126960D02*
X10141491Y-13117436D01*
X10141491Y-13117436D02*
X10131967Y-13098388D01*
X10131967Y-13098388D02*
X10122444Y-13060293D01*
X10122444Y-13060293D02*
X10122444Y-13012674D01*
X10122444Y-13012674D02*
X10131967Y-12974579D01*
X10131967Y-12974579D02*
X10141491Y-12955531D01*
X10141491Y-12955531D02*
X10151015Y-12946008D01*
X10151015Y-12946008D02*
X10170063Y-12936484D01*
X10360539Y-12936484D02*
X10379586Y-12936484D01*
X10379586Y-12936484D02*
X10398634Y-12946008D01*
X10398634Y-12946008D02*
X10408158Y-12955531D01*
X10408158Y-12955531D02*
X10417682Y-12974579D01*
X10417682Y-12974579D02*
X10427205Y-13012674D01*
X10427205Y-13012674D02*
X10427205Y-13060293D01*
X10427205Y-13060293D02*
X10417682Y-13098388D01*
X10417682Y-13098388D02*
X10408158Y-13117436D01*
X10408158Y-13117436D02*
X10398634Y-13126960D01*
X10398634Y-13126960D02*
X10379586Y-13136484D01*
X10379586Y-13136484D02*
X10360539Y-13136484D01*
X10360539Y-13136484D02*
X10341491Y-13126960D01*
X10341491Y-13126960D02*
X10331967Y-13117436D01*
X10331967Y-13117436D02*
X10322444Y-13098388D01*
X10322444Y-13098388D02*
X10312920Y-13060293D01*
X10312920Y-13060293D02*
X10312920Y-13012674D01*
X10312920Y-13012674D02*
X10322444Y-12974579D01*
X10322444Y-12974579D02*
X10331967Y-12955531D01*
X10331967Y-12955531D02*
X10341491Y-12946008D01*
X10341491Y-12946008D02*
X10360539Y-12936484D01*
X10512920Y-13136484D02*
X10512920Y-13003150D01*
X10512920Y-13022198D02*
X10522444Y-13012674D01*
X10522444Y-13012674D02*
X10541491Y-13003150D01*
X10541491Y-13003150D02*
X10570063Y-13003150D01*
X10570063Y-13003150D02*
X10589110Y-13012674D01*
X10589110Y-13012674D02*
X10598634Y-13031722D01*
X10598634Y-13031722D02*
X10598634Y-13136484D01*
X10598634Y-13031722D02*
X10608158Y-13012674D01*
X10608158Y-13012674D02*
X10627205Y-13003150D01*
X10627205Y-13003150D02*
X10655777Y-13003150D01*
X10655777Y-13003150D02*
X10674825Y-13012674D01*
X10674825Y-13012674D02*
X10684348Y-13031722D01*
X10684348Y-13031722D02*
X10684348Y-13136484D01*
X10779586Y-13136484D02*
X10779586Y-13003150D01*
X10779586Y-13022198D02*
X10789110Y-13012674D01*
X10789110Y-13012674D02*
X10808158Y-13003150D01*
X10808158Y-13003150D02*
X10836729Y-13003150D01*
X10836729Y-13003150D02*
X10855777Y-13012674D01*
X10855777Y-13012674D02*
X10865301Y-13031722D01*
X10865301Y-13031722D02*
X10865301Y-13136484D01*
X10865301Y-13031722D02*
X10874825Y-13012674D01*
X10874825Y-13012674D02*
X10893872Y-13003150D01*
X10893872Y-13003150D02*
X10922444Y-13003150D01*
X10922444Y-13003150D02*
X10941491Y-13012674D01*
X10941491Y-13012674D02*
X10951015Y-13031722D01*
X10951015Y-13031722D02*
X10951015Y-13136484D01*
X11341491Y-12926960D02*
X11170063Y-13184103D01*
X11598634Y-12936484D02*
X11617682Y-12936484D01*
X11617682Y-12936484D02*
X11636729Y-12946008D01*
X11636729Y-12946008D02*
X11646253Y-12955531D01*
X11646253Y-12955531D02*
X11655777Y-12974579D01*
X11655777Y-12974579D02*
X11665301Y-13012674D01*
X11665301Y-13012674D02*
X11665301Y-13060293D01*
X11665301Y-13060293D02*
X11655777Y-13098388D01*
X11655777Y-13098388D02*
X11646253Y-13117436D01*
X11646253Y-13117436D02*
X11636729Y-13126960D01*
X11636729Y-13126960D02*
X11617682Y-13136484D01*
X11617682Y-13136484D02*
X11598634Y-13136484D01*
X11598634Y-13136484D02*
X11579586Y-13126960D01*
X11579586Y-13126960D02*
X11570063Y-13117436D01*
X11570063Y-13117436D02*
X11560539Y-13098388D01*
X11560539Y-13098388D02*
X11551015Y-13060293D01*
X11551015Y-13060293D02*
X11551015Y-13012674D01*
X11551015Y-13012674D02*
X11560539Y-12974579D01*
X11560539Y-12974579D02*
X11570063Y-12955531D01*
X11570063Y-12955531D02*
X11579586Y-12946008D01*
X11579586Y-12946008D02*
X11598634Y-12936484D01*
X11751015Y-13117436D02*
X11760539Y-13126960D01*
X11760539Y-13126960D02*
X11751015Y-13136484D01*
X11751015Y-13136484D02*
X11741491Y-13126960D01*
X11741491Y-13126960D02*
X11751015Y-13117436D01*
X11751015Y-13117436D02*
X11751015Y-13136484D01*
X11884348Y-12936484D02*
X11903396Y-12936484D01*
X11903396Y-12936484D02*
X11922444Y-12946008D01*
X11922444Y-12946008D02*
X11931967Y-12955531D01*
X11931967Y-12955531D02*
X11941491Y-12974579D01*
X11941491Y-12974579D02*
X11951015Y-13012674D01*
X11951015Y-13012674D02*
X11951015Y-13060293D01*
X11951015Y-13060293D02*
X11941491Y-13098388D01*
X11941491Y-13098388D02*
X11931967Y-13117436D01*
X11931967Y-13117436D02*
X11922444Y-13126960D01*
X11922444Y-13126960D02*
X11903396Y-13136484D01*
X11903396Y-13136484D02*
X11884348Y-13136484D01*
X11884348Y-13136484D02*
X11865301Y-13126960D01*
X11865301Y-13126960D02*
X11855777Y-13117436D01*
X11855777Y-13117436D02*
X11846253Y-13098388D01*
X11846253Y-13098388D02*
X11836729Y-13060293D01*
X11836729Y-13060293D02*
X11836729Y-13012674D01*
X11836729Y-13012674D02*
X11846253Y-12974579D01*
X11846253Y-12974579D02*
X11855777Y-12955531D01*
X11855777Y-12955531D02*
X11865301Y-12946008D01*
X11865301Y-12946008D02*
X11884348Y-12936484D01*
X12141491Y-13136484D02*
X12027206Y-13136484D01*
X12084348Y-13136484D02*
X12084348Y-12936484D01*
X12084348Y-12936484D02*
X12065301Y-12965055D01*
X12065301Y-12965055D02*
X12046253Y-12984103D01*
X12046253Y-12984103D02*
X12027206Y-12993627D01*
X12322444Y-12936484D02*
X12227206Y-12936484D01*
X12227206Y-12936484D02*
X12217682Y-13031722D01*
X12217682Y-13031722D02*
X12227206Y-13022198D01*
X12227206Y-13022198D02*
X12246253Y-13012674D01*
X12246253Y-13012674D02*
X12293872Y-13012674D01*
X12293872Y-13012674D02*
X12312920Y-13022198D01*
X12312920Y-13022198D02*
X12322444Y-13031722D01*
X12322444Y-13031722D02*
X12331967Y-13050769D01*
X12331967Y-13050769D02*
X12331967Y-13098388D01*
X12331967Y-13098388D02*
X12322444Y-13117436D01*
X12322444Y-13117436D02*
X12312920Y-13126960D01*
X12312920Y-13126960D02*
X12293872Y-13136484D01*
X12293872Y-13136484D02*
X12246253Y-13136484D01*
X12246253Y-13136484D02*
X12227206Y-13126960D01*
X12227206Y-13126960D02*
X12217682Y-13117436D01*
X12398634Y-12936484D02*
X12531967Y-12936484D01*
X12531967Y-12936484D02*
X12446253Y-13136484D01*
X12598634Y-12936484D02*
X12598634Y-12974579D01*
X12674825Y-12936484D02*
X12674825Y-12974579D01*
X12970063Y-13212674D02*
X12960539Y-13203150D01*
X12960539Y-13203150D02*
X12941491Y-13174579D01*
X12941491Y-13174579D02*
X12931968Y-13155531D01*
X12931968Y-13155531D02*
X12922444Y-13126960D01*
X12922444Y-13126960D02*
X12912920Y-13079341D01*
X12912920Y-13079341D02*
X12912920Y-13041246D01*
X12912920Y-13041246D02*
X12922444Y-12993627D01*
X12922444Y-12993627D02*
X12931968Y-12965055D01*
X12931968Y-12965055D02*
X12941491Y-12946008D01*
X12941491Y-12946008D02*
X12960539Y-12917436D01*
X12960539Y-12917436D02*
X12970063Y-12907912D01*
X13055777Y-13136484D02*
X13093872Y-13136484D01*
X13093872Y-13136484D02*
X13112920Y-13126960D01*
X13112920Y-13126960D02*
X13122444Y-13117436D01*
X13122444Y-13117436D02*
X13141491Y-13088865D01*
X13141491Y-13088865D02*
X13151015Y-13050769D01*
X13151015Y-13050769D02*
X13151015Y-12974579D01*
X13151015Y-12974579D02*
X13141491Y-12955531D01*
X13141491Y-12955531D02*
X13131968Y-12946008D01*
X13131968Y-12946008D02*
X13112920Y-12936484D01*
X13112920Y-12936484D02*
X13074825Y-12936484D01*
X13074825Y-12936484D02*
X13055777Y-12946008D01*
X13055777Y-12946008D02*
X13046253Y-12955531D01*
X13046253Y-12955531D02*
X13036729Y-12974579D01*
X13036729Y-12974579D02*
X13036729Y-13022198D01*
X13036729Y-13022198D02*
X13046253Y-13041246D01*
X13046253Y-13041246D02*
X13055777Y-13050769D01*
X13055777Y-13050769D02*
X13074825Y-13060293D01*
X13074825Y-13060293D02*
X13112920Y-13060293D01*
X13112920Y-13060293D02*
X13131968Y-13050769D01*
X13131968Y-13050769D02*
X13141491Y-13041246D01*
X13141491Y-13041246D02*
X13151015Y-13022198D01*
X13389110Y-13136484D02*
X13389110Y-12936484D01*
X13474825Y-13136484D02*
X13474825Y-13031722D01*
X13474825Y-13031722D02*
X13465301Y-13012674D01*
X13465301Y-13012674D02*
X13446253Y-13003150D01*
X13446253Y-13003150D02*
X13417682Y-13003150D01*
X13417682Y-13003150D02*
X13398634Y-13012674D01*
X13398634Y-13012674D02*
X13389110Y-13022198D01*
X13598634Y-13136484D02*
X13579587Y-13126960D01*
X13579587Y-13126960D02*
X13570063Y-13117436D01*
X13570063Y-13117436D02*
X13560539Y-13098388D01*
X13560539Y-13098388D02*
X13560539Y-13041246D01*
X13560539Y-13041246D02*
X13570063Y-13022198D01*
X13570063Y-13022198D02*
X13579587Y-13012674D01*
X13579587Y-13012674D02*
X13598634Y-13003150D01*
X13598634Y-13003150D02*
X13627206Y-13003150D01*
X13627206Y-13003150D02*
X13646253Y-13012674D01*
X13646253Y-13012674D02*
X13655777Y-13022198D01*
X13655777Y-13022198D02*
X13665301Y-13041246D01*
X13665301Y-13041246D02*
X13665301Y-13098388D01*
X13665301Y-13098388D02*
X13655777Y-13117436D01*
X13655777Y-13117436D02*
X13646253Y-13126960D01*
X13646253Y-13126960D02*
X13627206Y-13136484D01*
X13627206Y-13136484D02*
X13598634Y-13136484D01*
X13779587Y-13136484D02*
X13760539Y-13126960D01*
X13760539Y-13126960D02*
X13751015Y-13107912D01*
X13751015Y-13107912D02*
X13751015Y-12936484D01*
X13931968Y-13126960D02*
X13912920Y-13136484D01*
X13912920Y-13136484D02*
X13874825Y-13136484D01*
X13874825Y-13136484D02*
X13855777Y-13126960D01*
X13855777Y-13126960D02*
X13846253Y-13107912D01*
X13846253Y-13107912D02*
X13846253Y-13031722D01*
X13846253Y-13031722D02*
X13855777Y-13012674D01*
X13855777Y-13012674D02*
X13874825Y-13003150D01*
X13874825Y-13003150D02*
X13912920Y-13003150D01*
X13912920Y-13003150D02*
X13931968Y-13012674D01*
X13931968Y-13012674D02*
X13941491Y-13031722D01*
X13941491Y-13031722D02*
X13941491Y-13050769D01*
X13941491Y-13050769D02*
X13846253Y-13069817D01*
X14017682Y-13126960D02*
X14036730Y-13136484D01*
X14036730Y-13136484D02*
X14074825Y-13136484D01*
X14074825Y-13136484D02*
X14093872Y-13126960D01*
X14093872Y-13126960D02*
X14103396Y-13107912D01*
X14103396Y-13107912D02*
X14103396Y-13098388D01*
X14103396Y-13098388D02*
X14093872Y-13079341D01*
X14093872Y-13079341D02*
X14074825Y-13069817D01*
X14074825Y-13069817D02*
X14046253Y-13069817D01*
X14046253Y-13069817D02*
X14027206Y-13060293D01*
X14027206Y-13060293D02*
X14017682Y-13041246D01*
X14017682Y-13041246D02*
X14017682Y-13031722D01*
X14017682Y-13031722D02*
X14027206Y-13012674D01*
X14027206Y-13012674D02*
X14046253Y-13003150D01*
X14046253Y-13003150D02*
X14074825Y-13003150D01*
X14074825Y-13003150D02*
X14093872Y-13012674D01*
X14170063Y-13212674D02*
X14179587Y-13203150D01*
X14179587Y-13203150D02*
X14198634Y-13174579D01*
X14198634Y-13174579D02*
X14208158Y-13155531D01*
X14208158Y-13155531D02*
X14217682Y-13126960D01*
X14217682Y-13126960D02*
X14227206Y-13079341D01*
X14227206Y-13079341D02*
X14227206Y-13041246D01*
X14227206Y-13041246D02*
X14217682Y-12993627D01*
X14217682Y-12993627D02*
X14208158Y-12965055D01*
X14208158Y-12965055D02*
X14198634Y-12946008D01*
X14198634Y-12946008D02*
X14179587Y-12917436D01*
X14179587Y-12917436D02*
X14170063Y-12907912D01*
D10*
X9395000Y-13309000D02*
G75*
G02*
X9315000Y-13309000I-40000J0D01*
G01*
X9315000Y-13309000D02*
G75*
G02*
X9395000Y-13309000I40000J0D01*
G01*
D11*
X9693872Y-13200484D02*
X9712920Y-13200484D01*
X9712920Y-13200484D02*
X9731967Y-13210008D01*
X9731967Y-13210008D02*
X9741491Y-13219531D01*
X9741491Y-13219531D02*
X9751015Y-13238579D01*
X9751015Y-13238579D02*
X9760539Y-13276674D01*
X9760539Y-13276674D02*
X9760539Y-13324293D01*
X9760539Y-13324293D02*
X9751015Y-13362388D01*
X9751015Y-13362388D02*
X9741491Y-13381436D01*
X9741491Y-13381436D02*
X9731967Y-13390960D01*
X9731967Y-13390960D02*
X9712920Y-13400484D01*
X9712920Y-13400484D02*
X9693872Y-13400484D01*
X9693872Y-13400484D02*
X9674824Y-13390960D01*
X9674824Y-13390960D02*
X9665301Y-13381436D01*
X9665301Y-13381436D02*
X9655777Y-13362388D01*
X9655777Y-13362388D02*
X9646253Y-13324293D01*
X9646253Y-13324293D02*
X9646253Y-13276674D01*
X9646253Y-13276674D02*
X9655777Y-13238579D01*
X9655777Y-13238579D02*
X9665301Y-13219531D01*
X9665301Y-13219531D02*
X9674824Y-13210008D01*
X9674824Y-13210008D02*
X9693872Y-13200484D01*
X9846253Y-13381436D02*
X9855777Y-13390960D01*
X9855777Y-13390960D02*
X9846253Y-13400484D01*
X9846253Y-13400484D02*
X9836729Y-13390960D01*
X9836729Y-13390960D02*
X9846253Y-13381436D01*
X9846253Y-13381436D02*
X9846253Y-13400484D01*
X9970063Y-13286198D02*
X9951015Y-13276674D01*
X9951015Y-13276674D02*
X9941491Y-13267150D01*
X9941491Y-13267150D02*
X9931967Y-13248103D01*
X9931967Y-13248103D02*
X9931967Y-13238579D01*
X9931967Y-13238579D02*
X9941491Y-13219531D01*
X9941491Y-13219531D02*
X9951015Y-13210008D01*
X9951015Y-13210008D02*
X9970063Y-13200484D01*
X9970063Y-13200484D02*
X10008158Y-13200484D01*
X10008158Y-13200484D02*
X10027205Y-13210008D01*
X10027205Y-13210008D02*
X10036729Y-13219531D01*
X10036729Y-13219531D02*
X10046253Y-13238579D01*
X10046253Y-13238579D02*
X10046253Y-13248103D01*
X10046253Y-13248103D02*
X10036729Y-13267150D01*
X10036729Y-13267150D02*
X10027205Y-13276674D01*
X10027205Y-13276674D02*
X10008158Y-13286198D01*
X10008158Y-13286198D02*
X9970063Y-13286198D01*
X9970063Y-13286198D02*
X9951015Y-13295722D01*
X9951015Y-13295722D02*
X9941491Y-13305246D01*
X9941491Y-13305246D02*
X9931967Y-13324293D01*
X9931967Y-13324293D02*
X9931967Y-13362388D01*
X9931967Y-13362388D02*
X9941491Y-13381436D01*
X9941491Y-13381436D02*
X9951015Y-13390960D01*
X9951015Y-13390960D02*
X9970063Y-13400484D01*
X9970063Y-13400484D02*
X10008158Y-13400484D01*
X10008158Y-13400484D02*
X10027205Y-13390960D01*
X10027205Y-13390960D02*
X10036729Y-13381436D01*
X10036729Y-13381436D02*
X10046253Y-13362388D01*
X10046253Y-13362388D02*
X10046253Y-13324293D01*
X10046253Y-13324293D02*
X10036729Y-13305246D01*
X10036729Y-13305246D02*
X10027205Y-13295722D01*
X10027205Y-13295722D02*
X10008158Y-13286198D01*
X10170063Y-13200484D02*
X10189110Y-13200484D01*
X10189110Y-13200484D02*
X10208158Y-13210008D01*
X10208158Y-13210008D02*
X10217682Y-13219531D01*
X10217682Y-13219531D02*
X10227205Y-13238579D01*
X10227205Y-13238579D02*
X10236729Y-13276674D01*
X10236729Y-13276674D02*
X10236729Y-13324293D01*
X10236729Y-13324293D02*
X10227205Y-13362388D01*
X10227205Y-13362388D02*
X10217682Y-13381436D01*
X10217682Y-13381436D02*
X10208158Y-13390960D01*
X10208158Y-13390960D02*
X10189110Y-13400484D01*
X10189110Y-13400484D02*
X10170063Y-13400484D01*
X10170063Y-13400484D02*
X10151015Y-13390960D01*
X10151015Y-13390960D02*
X10141491Y-13381436D01*
X10141491Y-13381436D02*
X10131967Y-13362388D01*
X10131967Y-13362388D02*
X10122444Y-13324293D01*
X10122444Y-13324293D02*
X10122444Y-13276674D01*
X10122444Y-13276674D02*
X10131967Y-13238579D01*
X10131967Y-13238579D02*
X10141491Y-13219531D01*
X10141491Y-13219531D02*
X10151015Y-13210008D01*
X10151015Y-13210008D02*
X10170063Y-13200484D01*
X10360539Y-13200484D02*
X10379586Y-13200484D01*
X10379586Y-13200484D02*
X10398634Y-13210008D01*
X10398634Y-13210008D02*
X10408158Y-13219531D01*
X10408158Y-13219531D02*
X10417682Y-13238579D01*
X10417682Y-13238579D02*
X10427205Y-13276674D01*
X10427205Y-13276674D02*
X10427205Y-13324293D01*
X10427205Y-13324293D02*
X10417682Y-13362388D01*
X10417682Y-13362388D02*
X10408158Y-13381436D01*
X10408158Y-13381436D02*
X10398634Y-13390960D01*
X10398634Y-13390960D02*
X10379586Y-13400484D01*
X10379586Y-13400484D02*
X10360539Y-13400484D01*
X10360539Y-13400484D02*
X10341491Y-13390960D01*
X10341491Y-13390960D02*
X10331967Y-13381436D01*
X10331967Y-13381436D02*
X10322444Y-13362388D01*
X10322444Y-13362388D02*
X10312920Y-13324293D01*
X10312920Y-13324293D02*
X10312920Y-13276674D01*
X10312920Y-13276674D02*
X10322444Y-13238579D01*
X10322444Y-13238579D02*
X10331967Y-13219531D01*
X10331967Y-13219531D02*
X10341491Y-13210008D01*
X10341491Y-13210008D02*
X10360539Y-13200484D01*
X10512920Y-13400484D02*
X10512920Y-13267150D01*
X10512920Y-13286198D02*
X10522444Y-13276674D01*
X10522444Y-13276674D02*
X10541491Y-13267150D01*
X10541491Y-13267150D02*
X10570063Y-13267150D01*
X10570063Y-13267150D02*
X10589110Y-13276674D01*
X10589110Y-13276674D02*
X10598634Y-13295722D01*
X10598634Y-13295722D02*
X10598634Y-13400484D01*
X10598634Y-13295722D02*
X10608158Y-13276674D01*
X10608158Y-13276674D02*
X10627205Y-13267150D01*
X10627205Y-13267150D02*
X10655777Y-13267150D01*
X10655777Y-13267150D02*
X10674825Y-13276674D01*
X10674825Y-13276674D02*
X10684348Y-13295722D01*
X10684348Y-13295722D02*
X10684348Y-13400484D01*
X10779586Y-13400484D02*
X10779586Y-13267150D01*
X10779586Y-13286198D02*
X10789110Y-13276674D01*
X10789110Y-13276674D02*
X10808158Y-13267150D01*
X10808158Y-13267150D02*
X10836729Y-13267150D01*
X10836729Y-13267150D02*
X10855777Y-13276674D01*
X10855777Y-13276674D02*
X10865301Y-13295722D01*
X10865301Y-13295722D02*
X10865301Y-13400484D01*
X10865301Y-13295722D02*
X10874825Y-13276674D01*
X10874825Y-13276674D02*
X10893872Y-13267150D01*
X10893872Y-13267150D02*
X10922444Y-13267150D01*
X10922444Y-13267150D02*
X10941491Y-13276674D01*
X10941491Y-13276674D02*
X10951015Y-13295722D01*
X10951015Y-13295722D02*
X10951015Y-13400484D01*
X11341491Y-13190960D02*
X11170063Y-13448103D01*
X11598634Y-13200484D02*
X11617682Y-13200484D01*
X11617682Y-13200484D02*
X11636729Y-13210008D01*
X11636729Y-13210008D02*
X11646253Y-13219531D01*
X11646253Y-13219531D02*
X11655777Y-13238579D01*
X11655777Y-13238579D02*
X11665301Y-13276674D01*
X11665301Y-13276674D02*
X11665301Y-13324293D01*
X11665301Y-13324293D02*
X11655777Y-13362388D01*
X11655777Y-13362388D02*
X11646253Y-13381436D01*
X11646253Y-13381436D02*
X11636729Y-13390960D01*
X11636729Y-13390960D02*
X11617682Y-13400484D01*
X11617682Y-13400484D02*
X11598634Y-13400484D01*
X11598634Y-13400484D02*
X11579586Y-13390960D01*
X11579586Y-13390960D02*
X11570063Y-13381436D01*
X11570063Y-13381436D02*
X11560539Y-13362388D01*
X11560539Y-13362388D02*
X11551015Y-13324293D01*
X11551015Y-13324293D02*
X11551015Y-13276674D01*
X11551015Y-13276674D02*
X11560539Y-13238579D01*
X11560539Y-13238579D02*
X11570063Y-13219531D01*
X11570063Y-13219531D02*
X11579586Y-13210008D01*
X11579586Y-13210008D02*
X11598634Y-13200484D01*
X11751015Y-13381436D02*
X11760539Y-13390960D01*
X11760539Y-13390960D02*
X11751015Y-13400484D01*
X11751015Y-13400484D02*
X11741491Y-13390960D01*
X11741491Y-13390960D02*
X11751015Y-13381436D01*
X11751015Y-13381436D02*
X11751015Y-13400484D01*
X11884348Y-13200484D02*
X11903396Y-13200484D01*
X11903396Y-13200484D02*
X11922444Y-13210008D01*
X11922444Y-13210008D02*
X11931967Y-13219531D01*
X11931967Y-13219531D02*
X11941491Y-13238579D01*
X11941491Y-13238579D02*
X11951015Y-13276674D01*
X11951015Y-13276674D02*
X11951015Y-13324293D01*
X11951015Y-13324293D02*
X11941491Y-13362388D01*
X11941491Y-13362388D02*
X11931967Y-13381436D01*
X11931967Y-13381436D02*
X11922444Y-13390960D01*
X11922444Y-13390960D02*
X11903396Y-13400484D01*
X11903396Y-13400484D02*
X11884348Y-13400484D01*
X11884348Y-13400484D02*
X11865301Y-13390960D01*
X11865301Y-13390960D02*
X11855777Y-13381436D01*
X11855777Y-13381436D02*
X11846253Y-13362388D01*
X11846253Y-13362388D02*
X11836729Y-13324293D01*
X11836729Y-13324293D02*
X11836729Y-13276674D01*
X11836729Y-13276674D02*
X11846253Y-13238579D01*
X11846253Y-13238579D02*
X11855777Y-13219531D01*
X11855777Y-13219531D02*
X11865301Y-13210008D01*
X11865301Y-13210008D02*
X11884348Y-13200484D01*
X12017682Y-13200484D02*
X12141491Y-13200484D01*
X12141491Y-13200484D02*
X12074825Y-13276674D01*
X12074825Y-13276674D02*
X12103396Y-13276674D01*
X12103396Y-13276674D02*
X12122444Y-13286198D01*
X12122444Y-13286198D02*
X12131967Y-13295722D01*
X12131967Y-13295722D02*
X12141491Y-13314769D01*
X12141491Y-13314769D02*
X12141491Y-13362388D01*
X12141491Y-13362388D02*
X12131967Y-13381436D01*
X12131967Y-13381436D02*
X12122444Y-13390960D01*
X12122444Y-13390960D02*
X12103396Y-13400484D01*
X12103396Y-13400484D02*
X12046253Y-13400484D01*
X12046253Y-13400484D02*
X12027206Y-13390960D01*
X12027206Y-13390960D02*
X12017682Y-13381436D01*
X12331967Y-13400484D02*
X12217682Y-13400484D01*
X12274825Y-13400484D02*
X12274825Y-13200484D01*
X12274825Y-13200484D02*
X12255777Y-13229055D01*
X12255777Y-13229055D02*
X12236729Y-13248103D01*
X12236729Y-13248103D02*
X12217682Y-13257627D01*
X12512920Y-13200484D02*
X12417682Y-13200484D01*
X12417682Y-13200484D02*
X12408158Y-13295722D01*
X12408158Y-13295722D02*
X12417682Y-13286198D01*
X12417682Y-13286198D02*
X12436729Y-13276674D01*
X12436729Y-13276674D02*
X12484348Y-13276674D01*
X12484348Y-13276674D02*
X12503396Y-13286198D01*
X12503396Y-13286198D02*
X12512920Y-13295722D01*
X12512920Y-13295722D02*
X12522444Y-13314769D01*
X12522444Y-13314769D02*
X12522444Y-13362388D01*
X12522444Y-13362388D02*
X12512920Y-13381436D01*
X12512920Y-13381436D02*
X12503396Y-13390960D01*
X12503396Y-13390960D02*
X12484348Y-13400484D01*
X12484348Y-13400484D02*
X12436729Y-13400484D01*
X12436729Y-13400484D02*
X12417682Y-13390960D01*
X12417682Y-13390960D02*
X12408158Y-13381436D01*
X12598634Y-13200484D02*
X12598634Y-13238579D01*
X12674825Y-13200484D02*
X12674825Y-13238579D01*
X12970063Y-13476674D02*
X12960539Y-13467150D01*
X12960539Y-13467150D02*
X12941491Y-13438579D01*
X12941491Y-13438579D02*
X12931968Y-13419531D01*
X12931968Y-13419531D02*
X12922444Y-13390960D01*
X12922444Y-13390960D02*
X12912920Y-13343341D01*
X12912920Y-13343341D02*
X12912920Y-13305246D01*
X12912920Y-13305246D02*
X12922444Y-13257627D01*
X12922444Y-13257627D02*
X12931968Y-13229055D01*
X12931968Y-13229055D02*
X12941491Y-13210008D01*
X12941491Y-13210008D02*
X12960539Y-13181436D01*
X12960539Y-13181436D02*
X12970063Y-13171912D01*
X13036729Y-13219531D02*
X13046253Y-13210008D01*
X13046253Y-13210008D02*
X13065301Y-13200484D01*
X13065301Y-13200484D02*
X13112920Y-13200484D01*
X13112920Y-13200484D02*
X13131968Y-13210008D01*
X13131968Y-13210008D02*
X13141491Y-13219531D01*
X13141491Y-13219531D02*
X13151015Y-13238579D01*
X13151015Y-13238579D02*
X13151015Y-13257627D01*
X13151015Y-13257627D02*
X13141491Y-13286198D01*
X13141491Y-13286198D02*
X13027206Y-13400484D01*
X13027206Y-13400484D02*
X13151015Y-13400484D01*
X13227206Y-13219531D02*
X13236729Y-13210008D01*
X13236729Y-13210008D02*
X13255777Y-13200484D01*
X13255777Y-13200484D02*
X13303396Y-13200484D01*
X13303396Y-13200484D02*
X13322444Y-13210008D01*
X13322444Y-13210008D02*
X13331968Y-13219531D01*
X13331968Y-13219531D02*
X13341491Y-13238579D01*
X13341491Y-13238579D02*
X13341491Y-13257627D01*
X13341491Y-13257627D02*
X13331968Y-13286198D01*
X13331968Y-13286198D02*
X13217682Y-13400484D01*
X13217682Y-13400484D02*
X13341491Y-13400484D01*
X13579587Y-13400484D02*
X13579587Y-13200484D01*
X13665301Y-13400484D02*
X13665301Y-13295722D01*
X13665301Y-13295722D02*
X13655777Y-13276674D01*
X13655777Y-13276674D02*
X13636730Y-13267150D01*
X13636730Y-13267150D02*
X13608158Y-13267150D01*
X13608158Y-13267150D02*
X13589110Y-13276674D01*
X13589110Y-13276674D02*
X13579587Y-13286198D01*
X13789110Y-13400484D02*
X13770063Y-13390960D01*
X13770063Y-13390960D02*
X13760539Y-13381436D01*
X13760539Y-13381436D02*
X13751015Y-13362388D01*
X13751015Y-13362388D02*
X13751015Y-13305246D01*
X13751015Y-13305246D02*
X13760539Y-13286198D01*
X13760539Y-13286198D02*
X13770063Y-13276674D01*
X13770063Y-13276674D02*
X13789110Y-13267150D01*
X13789110Y-13267150D02*
X13817682Y-13267150D01*
X13817682Y-13267150D02*
X13836730Y-13276674D01*
X13836730Y-13276674D02*
X13846253Y-13286198D01*
X13846253Y-13286198D02*
X13855777Y-13305246D01*
X13855777Y-13305246D02*
X13855777Y-13362388D01*
X13855777Y-13362388D02*
X13846253Y-13381436D01*
X13846253Y-13381436D02*
X13836730Y-13390960D01*
X13836730Y-13390960D02*
X13817682Y-13400484D01*
X13817682Y-13400484D02*
X13789110Y-13400484D01*
X13970063Y-13400484D02*
X13951015Y-13390960D01*
X13951015Y-13390960D02*
X13941491Y-13371912D01*
X13941491Y-13371912D02*
X13941491Y-13200484D01*
X14122444Y-13390960D02*
X14103396Y-13400484D01*
X14103396Y-13400484D02*
X14065301Y-13400484D01*
X14065301Y-13400484D02*
X14046253Y-13390960D01*
X14046253Y-13390960D02*
X14036730Y-13371912D01*
X14036730Y-13371912D02*
X14036730Y-13295722D01*
X14036730Y-13295722D02*
X14046253Y-13276674D01*
X14046253Y-13276674D02*
X14065301Y-13267150D01*
X14065301Y-13267150D02*
X14103396Y-13267150D01*
X14103396Y-13267150D02*
X14122444Y-13276674D01*
X14122444Y-13276674D02*
X14131968Y-13295722D01*
X14131968Y-13295722D02*
X14131968Y-13314769D01*
X14131968Y-13314769D02*
X14036730Y-13333817D01*
X14208158Y-13390960D02*
X14227206Y-13400484D01*
X14227206Y-13400484D02*
X14265301Y-13400484D01*
X14265301Y-13400484D02*
X14284349Y-13390960D01*
X14284349Y-13390960D02*
X14293872Y-13371912D01*
X14293872Y-13371912D02*
X14293872Y-13362388D01*
X14293872Y-13362388D02*
X14284349Y-13343341D01*
X14284349Y-13343341D02*
X14265301Y-13333817D01*
X14265301Y-13333817D02*
X14236730Y-13333817D01*
X14236730Y-13333817D02*
X14217682Y-13324293D01*
X14217682Y-13324293D02*
X14208158Y-13305246D01*
X14208158Y-13305246D02*
X14208158Y-13295722D01*
X14208158Y-13295722D02*
X14217682Y-13276674D01*
X14217682Y-13276674D02*
X14236730Y-13267150D01*
X14236730Y-13267150D02*
X14265301Y-13267150D01*
X14265301Y-13267150D02*
X14284349Y-13276674D01*
X14360539Y-13476674D02*
X14370063Y-13467150D01*
X14370063Y-13467150D02*
X14389111Y-13438579D01*
X14389111Y-13438579D02*
X14398634Y-13419531D01*
X14398634Y-13419531D02*
X14408158Y-13390960D01*
X14408158Y-13390960D02*
X14417682Y-13343341D01*
X14417682Y-13343341D02*
X14417682Y-13305246D01*
X14417682Y-13305246D02*
X14408158Y-13257627D01*
X14408158Y-13257627D02*
X14398634Y-13229055D01*
X14398634Y-13229055D02*
X14389111Y-13210008D01*
X14389111Y-13210008D02*
X14370063Y-13181436D01*
X14370063Y-13181436D02*
X14360539Y-13171912D01*
D12*
X9340000Y-13518000D02*
X9340000Y-13628000D01*
X9285000Y-13573000D02*
X9395000Y-13573000D01*
D11*
X9760539Y-13664484D02*
X9646253Y-13664484D01*
X9703396Y-13664484D02*
X9703396Y-13464484D01*
X9703396Y-13464484D02*
X9684348Y-13493055D01*
X9684348Y-13493055D02*
X9665301Y-13512103D01*
X9665301Y-13512103D02*
X9646253Y-13521627D01*
X9846253Y-13645436D02*
X9855777Y-13654960D01*
X9855777Y-13654960D02*
X9846253Y-13664484D01*
X9846253Y-13664484D02*
X9836729Y-13654960D01*
X9836729Y-13654960D02*
X9846253Y-13645436D01*
X9846253Y-13645436D02*
X9846253Y-13664484D01*
X10046253Y-13664484D02*
X9931967Y-13664484D01*
X9989110Y-13664484D02*
X9989110Y-13464484D01*
X9989110Y-13464484D02*
X9970063Y-13493055D01*
X9970063Y-13493055D02*
X9951015Y-13512103D01*
X9951015Y-13512103D02*
X9931967Y-13521627D01*
X10170063Y-13464484D02*
X10189110Y-13464484D01*
X10189110Y-13464484D02*
X10208158Y-13474008D01*
X10208158Y-13474008D02*
X10217682Y-13483531D01*
X10217682Y-13483531D02*
X10227205Y-13502579D01*
X10227205Y-13502579D02*
X10236729Y-13540674D01*
X10236729Y-13540674D02*
X10236729Y-13588293D01*
X10236729Y-13588293D02*
X10227205Y-13626388D01*
X10227205Y-13626388D02*
X10217682Y-13645436D01*
X10217682Y-13645436D02*
X10208158Y-13654960D01*
X10208158Y-13654960D02*
X10189110Y-13664484D01*
X10189110Y-13664484D02*
X10170063Y-13664484D01*
X10170063Y-13664484D02*
X10151015Y-13654960D01*
X10151015Y-13654960D02*
X10141491Y-13645436D01*
X10141491Y-13645436D02*
X10131967Y-13626388D01*
X10131967Y-13626388D02*
X10122444Y-13588293D01*
X10122444Y-13588293D02*
X10122444Y-13540674D01*
X10122444Y-13540674D02*
X10131967Y-13502579D01*
X10131967Y-13502579D02*
X10141491Y-13483531D01*
X10141491Y-13483531D02*
X10151015Y-13474008D01*
X10151015Y-13474008D02*
X10170063Y-13464484D01*
X10360539Y-13464484D02*
X10379586Y-13464484D01*
X10379586Y-13464484D02*
X10398634Y-13474008D01*
X10398634Y-13474008D02*
X10408158Y-13483531D01*
X10408158Y-13483531D02*
X10417682Y-13502579D01*
X10417682Y-13502579D02*
X10427205Y-13540674D01*
X10427205Y-13540674D02*
X10427205Y-13588293D01*
X10427205Y-13588293D02*
X10417682Y-13626388D01*
X10417682Y-13626388D02*
X10408158Y-13645436D01*
X10408158Y-13645436D02*
X10398634Y-13654960D01*
X10398634Y-13654960D02*
X10379586Y-13664484D01*
X10379586Y-13664484D02*
X10360539Y-13664484D01*
X10360539Y-13664484D02*
X10341491Y-13654960D01*
X10341491Y-13654960D02*
X10331967Y-13645436D01*
X10331967Y-13645436D02*
X10322444Y-13626388D01*
X10322444Y-13626388D02*
X10312920Y-13588293D01*
X10312920Y-13588293D02*
X10312920Y-13540674D01*
X10312920Y-13540674D02*
X10322444Y-13502579D01*
X10322444Y-13502579D02*
X10331967Y-13483531D01*
X10331967Y-13483531D02*
X10341491Y-13474008D01*
X10341491Y-13474008D02*
X10360539Y-13464484D01*
X10512920Y-13664484D02*
X10512920Y-13531150D01*
X10512920Y-13550198D02*
X10522444Y-13540674D01*
X10522444Y-13540674D02*
X10541491Y-13531150D01*
X10541491Y-13531150D02*
X10570063Y-13531150D01*
X10570063Y-13531150D02*
X10589110Y-13540674D01*
X10589110Y-13540674D02*
X10598634Y-13559722D01*
X10598634Y-13559722D02*
X10598634Y-13664484D01*
X10598634Y-13559722D02*
X10608158Y-13540674D01*
X10608158Y-13540674D02*
X10627205Y-13531150D01*
X10627205Y-13531150D02*
X10655777Y-13531150D01*
X10655777Y-13531150D02*
X10674825Y-13540674D01*
X10674825Y-13540674D02*
X10684348Y-13559722D01*
X10684348Y-13559722D02*
X10684348Y-13664484D01*
X10779586Y-13664484D02*
X10779586Y-13531150D01*
X10779586Y-13550198D02*
X10789110Y-13540674D01*
X10789110Y-13540674D02*
X10808158Y-13531150D01*
X10808158Y-13531150D02*
X10836729Y-13531150D01*
X10836729Y-13531150D02*
X10855777Y-13540674D01*
X10855777Y-13540674D02*
X10865301Y-13559722D01*
X10865301Y-13559722D02*
X10865301Y-13664484D01*
X10865301Y-13559722D02*
X10874825Y-13540674D01*
X10874825Y-13540674D02*
X10893872Y-13531150D01*
X10893872Y-13531150D02*
X10922444Y-13531150D01*
X10922444Y-13531150D02*
X10941491Y-13540674D01*
X10941491Y-13540674D02*
X10951015Y-13559722D01*
X10951015Y-13559722D02*
X10951015Y-13664484D01*
X11341491Y-13454960D02*
X11170063Y-13712103D01*
X11598634Y-13464484D02*
X11617682Y-13464484D01*
X11617682Y-13464484D02*
X11636729Y-13474008D01*
X11636729Y-13474008D02*
X11646253Y-13483531D01*
X11646253Y-13483531D02*
X11655777Y-13502579D01*
X11655777Y-13502579D02*
X11665301Y-13540674D01*
X11665301Y-13540674D02*
X11665301Y-13588293D01*
X11665301Y-13588293D02*
X11655777Y-13626388D01*
X11655777Y-13626388D02*
X11646253Y-13645436D01*
X11646253Y-13645436D02*
X11636729Y-13654960D01*
X11636729Y-13654960D02*
X11617682Y-13664484D01*
X11617682Y-13664484D02*
X11598634Y-13664484D01*
X11598634Y-13664484D02*
X11579586Y-13654960D01*
X11579586Y-13654960D02*
X11570063Y-13645436D01*
X11570063Y-13645436D02*
X11560539Y-13626388D01*
X11560539Y-13626388D02*
X11551015Y-13588293D01*
X11551015Y-13588293D02*
X11551015Y-13540674D01*
X11551015Y-13540674D02*
X11560539Y-13502579D01*
X11560539Y-13502579D02*
X11570063Y-13483531D01*
X11570063Y-13483531D02*
X11579586Y-13474008D01*
X11579586Y-13474008D02*
X11598634Y-13464484D01*
X11751015Y-13645436D02*
X11760539Y-13654960D01*
X11760539Y-13654960D02*
X11751015Y-13664484D01*
X11751015Y-13664484D02*
X11741491Y-13654960D01*
X11741491Y-13654960D02*
X11751015Y-13645436D01*
X11751015Y-13645436D02*
X11751015Y-13664484D01*
X11884348Y-13464484D02*
X11903396Y-13464484D01*
X11903396Y-13464484D02*
X11922444Y-13474008D01*
X11922444Y-13474008D02*
X11931967Y-13483531D01*
X11931967Y-13483531D02*
X11941491Y-13502579D01*
X11941491Y-13502579D02*
X11951015Y-13540674D01*
X11951015Y-13540674D02*
X11951015Y-13588293D01*
X11951015Y-13588293D02*
X11941491Y-13626388D01*
X11941491Y-13626388D02*
X11931967Y-13645436D01*
X11931967Y-13645436D02*
X11922444Y-13654960D01*
X11922444Y-13654960D02*
X11903396Y-13664484D01*
X11903396Y-13664484D02*
X11884348Y-13664484D01*
X11884348Y-13664484D02*
X11865301Y-13654960D01*
X11865301Y-13654960D02*
X11855777Y-13645436D01*
X11855777Y-13645436D02*
X11846253Y-13626388D01*
X11846253Y-13626388D02*
X11836729Y-13588293D01*
X11836729Y-13588293D02*
X11836729Y-13540674D01*
X11836729Y-13540674D02*
X11846253Y-13502579D01*
X11846253Y-13502579D02*
X11855777Y-13483531D01*
X11855777Y-13483531D02*
X11865301Y-13474008D01*
X11865301Y-13474008D02*
X11884348Y-13464484D01*
X12122444Y-13531150D02*
X12122444Y-13664484D01*
X12074825Y-13454960D02*
X12027206Y-13597817D01*
X12027206Y-13597817D02*
X12151015Y-13597817D01*
X12208158Y-13464484D02*
X12331967Y-13464484D01*
X12331967Y-13464484D02*
X12265301Y-13540674D01*
X12265301Y-13540674D02*
X12293872Y-13540674D01*
X12293872Y-13540674D02*
X12312920Y-13550198D01*
X12312920Y-13550198D02*
X12322444Y-13559722D01*
X12322444Y-13559722D02*
X12331967Y-13578769D01*
X12331967Y-13578769D02*
X12331967Y-13626388D01*
X12331967Y-13626388D02*
X12322444Y-13645436D01*
X12322444Y-13645436D02*
X12312920Y-13654960D01*
X12312920Y-13654960D02*
X12293872Y-13664484D01*
X12293872Y-13664484D02*
X12236729Y-13664484D01*
X12236729Y-13664484D02*
X12217682Y-13654960D01*
X12217682Y-13654960D02*
X12208158Y-13645436D01*
X12398634Y-13464484D02*
X12522444Y-13464484D01*
X12522444Y-13464484D02*
X12455777Y-13540674D01*
X12455777Y-13540674D02*
X12484348Y-13540674D01*
X12484348Y-13540674D02*
X12503396Y-13550198D01*
X12503396Y-13550198D02*
X12512920Y-13559722D01*
X12512920Y-13559722D02*
X12522444Y-13578769D01*
X12522444Y-13578769D02*
X12522444Y-13626388D01*
X12522444Y-13626388D02*
X12512920Y-13645436D01*
X12512920Y-13645436D02*
X12503396Y-13654960D01*
X12503396Y-13654960D02*
X12484348Y-13664484D01*
X12484348Y-13664484D02*
X12427206Y-13664484D01*
X12427206Y-13664484D02*
X12408158Y-13654960D01*
X12408158Y-13654960D02*
X12398634Y-13645436D01*
X12598634Y-13464484D02*
X12598634Y-13502579D01*
X12674825Y-13464484D02*
X12674825Y-13502579D01*
X12970063Y-13740674D02*
X12960539Y-13731150D01*
X12960539Y-13731150D02*
X12941491Y-13702579D01*
X12941491Y-13702579D02*
X12931968Y-13683531D01*
X12931968Y-13683531D02*
X12922444Y-13654960D01*
X12922444Y-13654960D02*
X12912920Y-13607341D01*
X12912920Y-13607341D02*
X12912920Y-13569246D01*
X12912920Y-13569246D02*
X12922444Y-13521627D01*
X12922444Y-13521627D02*
X12931968Y-13493055D01*
X12931968Y-13493055D02*
X12941491Y-13474008D01*
X12941491Y-13474008D02*
X12960539Y-13445436D01*
X12960539Y-13445436D02*
X12970063Y-13435912D01*
X13027206Y-13464484D02*
X13151015Y-13464484D01*
X13151015Y-13464484D02*
X13084348Y-13540674D01*
X13084348Y-13540674D02*
X13112920Y-13540674D01*
X13112920Y-13540674D02*
X13131968Y-13550198D01*
X13131968Y-13550198D02*
X13141491Y-13559722D01*
X13141491Y-13559722D02*
X13151015Y-13578769D01*
X13151015Y-13578769D02*
X13151015Y-13626388D01*
X13151015Y-13626388D02*
X13141491Y-13645436D01*
X13141491Y-13645436D02*
X13131968Y-13654960D01*
X13131968Y-13654960D02*
X13112920Y-13664484D01*
X13112920Y-13664484D02*
X13055777Y-13664484D01*
X13055777Y-13664484D02*
X13036729Y-13654960D01*
X13036729Y-13654960D02*
X13027206Y-13645436D01*
X13389110Y-13664484D02*
X13389110Y-13464484D01*
X13474825Y-13664484D02*
X13474825Y-13559722D01*
X13474825Y-13559722D02*
X13465301Y-13540674D01*
X13465301Y-13540674D02*
X13446253Y-13531150D01*
X13446253Y-13531150D02*
X13417682Y-13531150D01*
X13417682Y-13531150D02*
X13398634Y-13540674D01*
X13398634Y-13540674D02*
X13389110Y-13550198D01*
X13598634Y-13664484D02*
X13579587Y-13654960D01*
X13579587Y-13654960D02*
X13570063Y-13645436D01*
X13570063Y-13645436D02*
X13560539Y-13626388D01*
X13560539Y-13626388D02*
X13560539Y-13569246D01*
X13560539Y-13569246D02*
X13570063Y-13550198D01*
X13570063Y-13550198D02*
X13579587Y-13540674D01*
X13579587Y-13540674D02*
X13598634Y-13531150D01*
X13598634Y-13531150D02*
X13627206Y-13531150D01*
X13627206Y-13531150D02*
X13646253Y-13540674D01*
X13646253Y-13540674D02*
X13655777Y-13550198D01*
X13655777Y-13550198D02*
X13665301Y-13569246D01*
X13665301Y-13569246D02*
X13665301Y-13626388D01*
X13665301Y-13626388D02*
X13655777Y-13645436D01*
X13655777Y-13645436D02*
X13646253Y-13654960D01*
X13646253Y-13654960D02*
X13627206Y-13664484D01*
X13627206Y-13664484D02*
X13598634Y-13664484D01*
X13779587Y-13664484D02*
X13760539Y-13654960D01*
X13760539Y-13654960D02*
X13751015Y-13635912D01*
X13751015Y-13635912D02*
X13751015Y-13464484D01*
X13931968Y-13654960D02*
X13912920Y-13664484D01*
X13912920Y-13664484D02*
X13874825Y-13664484D01*
X13874825Y-13664484D02*
X13855777Y-13654960D01*
X13855777Y-13654960D02*
X13846253Y-13635912D01*
X13846253Y-13635912D02*
X13846253Y-13559722D01*
X13846253Y-13559722D02*
X13855777Y-13540674D01*
X13855777Y-13540674D02*
X13874825Y-13531150D01*
X13874825Y-13531150D02*
X13912920Y-13531150D01*
X13912920Y-13531150D02*
X13931968Y-13540674D01*
X13931968Y-13540674D02*
X13941491Y-13559722D01*
X13941491Y-13559722D02*
X13941491Y-13578769D01*
X13941491Y-13578769D02*
X13846253Y-13597817D01*
X14017682Y-13654960D02*
X14036730Y-13664484D01*
X14036730Y-13664484D02*
X14074825Y-13664484D01*
X14074825Y-13664484D02*
X14093872Y-13654960D01*
X14093872Y-13654960D02*
X14103396Y-13635912D01*
X14103396Y-13635912D02*
X14103396Y-13626388D01*
X14103396Y-13626388D02*
X14093872Y-13607341D01*
X14093872Y-13607341D02*
X14074825Y-13597817D01*
X14074825Y-13597817D02*
X14046253Y-13597817D01*
X14046253Y-13597817D02*
X14027206Y-13588293D01*
X14027206Y-13588293D02*
X14017682Y-13569246D01*
X14017682Y-13569246D02*
X14017682Y-13559722D01*
X14017682Y-13559722D02*
X14027206Y-13540674D01*
X14027206Y-13540674D02*
X14046253Y-13531150D01*
X14046253Y-13531150D02*
X14074825Y-13531150D01*
X14074825Y-13531150D02*
X14093872Y-13540674D01*
X14170063Y-13740674D02*
X14179587Y-13731150D01*
X14179587Y-13731150D02*
X14198634Y-13702579D01*
X14198634Y-13702579D02*
X14208158Y-13683531D01*
X14208158Y-13683531D02*
X14217682Y-13654960D01*
X14217682Y-13654960D02*
X14227206Y-13607341D01*
X14227206Y-13607341D02*
X14227206Y-13569246D01*
X14227206Y-13569246D02*
X14217682Y-13521627D01*
X14217682Y-13521627D02*
X14208158Y-13493055D01*
X14208158Y-13493055D02*
X14198634Y-13474008D01*
X14198634Y-13474008D02*
X14179587Y-13445436D01*
X14179587Y-13445436D02*
X14170063Y-13435912D01*
D13*
X9371569Y-13893569D02*
X9371569Y-13780431D01*
X9258431Y-13780431D01*
X9258431Y-13893569D01*
X9371569Y-13893569D01*
D11*
X9760539Y-13928484D02*
X9646253Y-13928484D01*
X9703396Y-13928484D02*
X9703396Y-13728484D01*
X9703396Y-13728484D02*
X9684348Y-13757055D01*
X9684348Y-13757055D02*
X9665301Y-13776103D01*
X9665301Y-13776103D02*
X9646253Y-13785627D01*
X9846253Y-13909436D02*
X9855777Y-13918960D01*
X9855777Y-13918960D02*
X9846253Y-13928484D01*
X9846253Y-13928484D02*
X9836729Y-13918960D01*
X9836729Y-13918960D02*
X9846253Y-13909436D01*
X9846253Y-13909436D02*
X9846253Y-13928484D01*
X10027205Y-13728484D02*
X9989110Y-13728484D01*
X9989110Y-13728484D02*
X9970063Y-13738008D01*
X9970063Y-13738008D02*
X9960539Y-13747531D01*
X9960539Y-13747531D02*
X9941491Y-13776103D01*
X9941491Y-13776103D02*
X9931967Y-13814198D01*
X9931967Y-13814198D02*
X9931967Y-13890388D01*
X9931967Y-13890388D02*
X9941491Y-13909436D01*
X9941491Y-13909436D02*
X9951015Y-13918960D01*
X9951015Y-13918960D02*
X9970063Y-13928484D01*
X9970063Y-13928484D02*
X10008158Y-13928484D01*
X10008158Y-13928484D02*
X10027205Y-13918960D01*
X10027205Y-13918960D02*
X10036729Y-13909436D01*
X10036729Y-13909436D02*
X10046253Y-13890388D01*
X10046253Y-13890388D02*
X10046253Y-13842769D01*
X10046253Y-13842769D02*
X10036729Y-13823722D01*
X10036729Y-13823722D02*
X10027205Y-13814198D01*
X10027205Y-13814198D02*
X10008158Y-13804674D01*
X10008158Y-13804674D02*
X9970063Y-13804674D01*
X9970063Y-13804674D02*
X9951015Y-13814198D01*
X9951015Y-13814198D02*
X9941491Y-13823722D01*
X9941491Y-13823722D02*
X9931967Y-13842769D01*
X10170063Y-13728484D02*
X10189110Y-13728484D01*
X10189110Y-13728484D02*
X10208158Y-13738008D01*
X10208158Y-13738008D02*
X10217682Y-13747531D01*
X10217682Y-13747531D02*
X10227205Y-13766579D01*
X10227205Y-13766579D02*
X10236729Y-13804674D01*
X10236729Y-13804674D02*
X10236729Y-13852293D01*
X10236729Y-13852293D02*
X10227205Y-13890388D01*
X10227205Y-13890388D02*
X10217682Y-13909436D01*
X10217682Y-13909436D02*
X10208158Y-13918960D01*
X10208158Y-13918960D02*
X10189110Y-13928484D01*
X10189110Y-13928484D02*
X10170063Y-13928484D01*
X10170063Y-13928484D02*
X10151015Y-13918960D01*
X10151015Y-13918960D02*
X10141491Y-13909436D01*
X10141491Y-13909436D02*
X10131967Y-13890388D01*
X10131967Y-13890388D02*
X10122444Y-13852293D01*
X10122444Y-13852293D02*
X10122444Y-13804674D01*
X10122444Y-13804674D02*
X10131967Y-13766579D01*
X10131967Y-13766579D02*
X10141491Y-13747531D01*
X10141491Y-13747531D02*
X10151015Y-13738008D01*
X10151015Y-13738008D02*
X10170063Y-13728484D01*
X10360539Y-13728484D02*
X10379586Y-13728484D01*
X10379586Y-13728484D02*
X10398634Y-13738008D01*
X10398634Y-13738008D02*
X10408158Y-13747531D01*
X10408158Y-13747531D02*
X10417682Y-13766579D01*
X10417682Y-13766579D02*
X10427205Y-13804674D01*
X10427205Y-13804674D02*
X10427205Y-13852293D01*
X10427205Y-13852293D02*
X10417682Y-13890388D01*
X10417682Y-13890388D02*
X10408158Y-13909436D01*
X10408158Y-13909436D02*
X10398634Y-13918960D01*
X10398634Y-13918960D02*
X10379586Y-13928484D01*
X10379586Y-13928484D02*
X10360539Y-13928484D01*
X10360539Y-13928484D02*
X10341491Y-13918960D01*
X10341491Y-13918960D02*
X10331967Y-13909436D01*
X10331967Y-13909436D02*
X10322444Y-13890388D01*
X10322444Y-13890388D02*
X10312920Y-13852293D01*
X10312920Y-13852293D02*
X10312920Y-13804674D01*
X10312920Y-13804674D02*
X10322444Y-13766579D01*
X10322444Y-13766579D02*
X10331967Y-13747531D01*
X10331967Y-13747531D02*
X10341491Y-13738008D01*
X10341491Y-13738008D02*
X10360539Y-13728484D01*
X10512920Y-13928484D02*
X10512920Y-13795150D01*
X10512920Y-13814198D02*
X10522444Y-13804674D01*
X10522444Y-13804674D02*
X10541491Y-13795150D01*
X10541491Y-13795150D02*
X10570063Y-13795150D01*
X10570063Y-13795150D02*
X10589110Y-13804674D01*
X10589110Y-13804674D02*
X10598634Y-13823722D01*
X10598634Y-13823722D02*
X10598634Y-13928484D01*
X10598634Y-13823722D02*
X10608158Y-13804674D01*
X10608158Y-13804674D02*
X10627205Y-13795150D01*
X10627205Y-13795150D02*
X10655777Y-13795150D01*
X10655777Y-13795150D02*
X10674825Y-13804674D01*
X10674825Y-13804674D02*
X10684348Y-13823722D01*
X10684348Y-13823722D02*
X10684348Y-13928484D01*
X10779586Y-13928484D02*
X10779586Y-13795150D01*
X10779586Y-13814198D02*
X10789110Y-13804674D01*
X10789110Y-13804674D02*
X10808158Y-13795150D01*
X10808158Y-13795150D02*
X10836729Y-13795150D01*
X10836729Y-13795150D02*
X10855777Y-13804674D01*
X10855777Y-13804674D02*
X10865301Y-13823722D01*
X10865301Y-13823722D02*
X10865301Y-13928484D01*
X10865301Y-13823722D02*
X10874825Y-13804674D01*
X10874825Y-13804674D02*
X10893872Y-13795150D01*
X10893872Y-13795150D02*
X10922444Y-13795150D01*
X10922444Y-13795150D02*
X10941491Y-13804674D01*
X10941491Y-13804674D02*
X10951015Y-13823722D01*
X10951015Y-13823722D02*
X10951015Y-13928484D01*
X11341491Y-13718960D02*
X11170063Y-13976103D01*
X11598634Y-13728484D02*
X11617682Y-13728484D01*
X11617682Y-13728484D02*
X11636729Y-13738008D01*
X11636729Y-13738008D02*
X11646253Y-13747531D01*
X11646253Y-13747531D02*
X11655777Y-13766579D01*
X11655777Y-13766579D02*
X11665301Y-13804674D01*
X11665301Y-13804674D02*
X11665301Y-13852293D01*
X11665301Y-13852293D02*
X11655777Y-13890388D01*
X11655777Y-13890388D02*
X11646253Y-13909436D01*
X11646253Y-13909436D02*
X11636729Y-13918960D01*
X11636729Y-13918960D02*
X11617682Y-13928484D01*
X11617682Y-13928484D02*
X11598634Y-13928484D01*
X11598634Y-13928484D02*
X11579586Y-13918960D01*
X11579586Y-13918960D02*
X11570063Y-13909436D01*
X11570063Y-13909436D02*
X11560539Y-13890388D01*
X11560539Y-13890388D02*
X11551015Y-13852293D01*
X11551015Y-13852293D02*
X11551015Y-13804674D01*
X11551015Y-13804674D02*
X11560539Y-13766579D01*
X11560539Y-13766579D02*
X11570063Y-13747531D01*
X11570063Y-13747531D02*
X11579586Y-13738008D01*
X11579586Y-13738008D02*
X11598634Y-13728484D01*
X11751015Y-13909436D02*
X11760539Y-13918960D01*
X11760539Y-13918960D02*
X11751015Y-13928484D01*
X11751015Y-13928484D02*
X11741491Y-13918960D01*
X11741491Y-13918960D02*
X11751015Y-13909436D01*
X11751015Y-13909436D02*
X11751015Y-13928484D01*
X11884348Y-13728484D02*
X11903396Y-13728484D01*
X11903396Y-13728484D02*
X11922444Y-13738008D01*
X11922444Y-13738008D02*
X11931967Y-13747531D01*
X11931967Y-13747531D02*
X11941491Y-13766579D01*
X11941491Y-13766579D02*
X11951015Y-13804674D01*
X11951015Y-13804674D02*
X11951015Y-13852293D01*
X11951015Y-13852293D02*
X11941491Y-13890388D01*
X11941491Y-13890388D02*
X11931967Y-13909436D01*
X11931967Y-13909436D02*
X11922444Y-13918960D01*
X11922444Y-13918960D02*
X11903396Y-13928484D01*
X11903396Y-13928484D02*
X11884348Y-13928484D01*
X11884348Y-13928484D02*
X11865301Y-13918960D01*
X11865301Y-13918960D02*
X11855777Y-13909436D01*
X11855777Y-13909436D02*
X11846253Y-13890388D01*
X11846253Y-13890388D02*
X11836729Y-13852293D01*
X11836729Y-13852293D02*
X11836729Y-13804674D01*
X11836729Y-13804674D02*
X11846253Y-13766579D01*
X11846253Y-13766579D02*
X11855777Y-13747531D01*
X11855777Y-13747531D02*
X11865301Y-13738008D01*
X11865301Y-13738008D02*
X11884348Y-13728484D01*
X12122444Y-13728484D02*
X12084348Y-13728484D01*
X12084348Y-13728484D02*
X12065301Y-13738008D01*
X12065301Y-13738008D02*
X12055777Y-13747531D01*
X12055777Y-13747531D02*
X12036729Y-13776103D01*
X12036729Y-13776103D02*
X12027206Y-13814198D01*
X12027206Y-13814198D02*
X12027206Y-13890388D01*
X12027206Y-13890388D02*
X12036729Y-13909436D01*
X12036729Y-13909436D02*
X12046253Y-13918960D01*
X12046253Y-13918960D02*
X12065301Y-13928484D01*
X12065301Y-13928484D02*
X12103396Y-13928484D01*
X12103396Y-13928484D02*
X12122444Y-13918960D01*
X12122444Y-13918960D02*
X12131967Y-13909436D01*
X12131967Y-13909436D02*
X12141491Y-13890388D01*
X12141491Y-13890388D02*
X12141491Y-13842769D01*
X12141491Y-13842769D02*
X12131967Y-13823722D01*
X12131967Y-13823722D02*
X12122444Y-13814198D01*
X12122444Y-13814198D02*
X12103396Y-13804674D01*
X12103396Y-13804674D02*
X12065301Y-13804674D01*
X12065301Y-13804674D02*
X12046253Y-13814198D01*
X12046253Y-13814198D02*
X12036729Y-13823722D01*
X12036729Y-13823722D02*
X12027206Y-13842769D01*
X12208158Y-13728484D02*
X12331967Y-13728484D01*
X12331967Y-13728484D02*
X12265301Y-13804674D01*
X12265301Y-13804674D02*
X12293872Y-13804674D01*
X12293872Y-13804674D02*
X12312920Y-13814198D01*
X12312920Y-13814198D02*
X12322444Y-13823722D01*
X12322444Y-13823722D02*
X12331967Y-13842769D01*
X12331967Y-13842769D02*
X12331967Y-13890388D01*
X12331967Y-13890388D02*
X12322444Y-13909436D01*
X12322444Y-13909436D02*
X12312920Y-13918960D01*
X12312920Y-13918960D02*
X12293872Y-13928484D01*
X12293872Y-13928484D02*
X12236729Y-13928484D01*
X12236729Y-13928484D02*
X12217682Y-13918960D01*
X12217682Y-13918960D02*
X12208158Y-13909436D01*
X12455777Y-13728484D02*
X12474825Y-13728484D01*
X12474825Y-13728484D02*
X12493872Y-13738008D01*
X12493872Y-13738008D02*
X12503396Y-13747531D01*
X12503396Y-13747531D02*
X12512920Y-13766579D01*
X12512920Y-13766579D02*
X12522444Y-13804674D01*
X12522444Y-13804674D02*
X12522444Y-13852293D01*
X12522444Y-13852293D02*
X12512920Y-13890388D01*
X12512920Y-13890388D02*
X12503396Y-13909436D01*
X12503396Y-13909436D02*
X12493872Y-13918960D01*
X12493872Y-13918960D02*
X12474825Y-13928484D01*
X12474825Y-13928484D02*
X12455777Y-13928484D01*
X12455777Y-13928484D02*
X12436729Y-13918960D01*
X12436729Y-13918960D02*
X12427206Y-13909436D01*
X12427206Y-13909436D02*
X12417682Y-13890388D01*
X12417682Y-13890388D02*
X12408158Y-13852293D01*
X12408158Y-13852293D02*
X12408158Y-13804674D01*
X12408158Y-13804674D02*
X12417682Y-13766579D01*
X12417682Y-13766579D02*
X12427206Y-13747531D01*
X12427206Y-13747531D02*
X12436729Y-13738008D01*
X12436729Y-13738008D02*
X12455777Y-13728484D01*
X12598634Y-13728484D02*
X12598634Y-13766579D01*
X12674825Y-13728484D02*
X12674825Y-13766579D01*
X12970063Y-14004674D02*
X12960539Y-13995150D01*
X12960539Y-13995150D02*
X12941491Y-13966579D01*
X12941491Y-13966579D02*
X12931968Y-13947531D01*
X12931968Y-13947531D02*
X12922444Y-13918960D01*
X12922444Y-13918960D02*
X12912920Y-13871341D01*
X12912920Y-13871341D02*
X12912920Y-13833246D01*
X12912920Y-13833246D02*
X12922444Y-13785627D01*
X12922444Y-13785627D02*
X12931968Y-13757055D01*
X12931968Y-13757055D02*
X12941491Y-13738008D01*
X12941491Y-13738008D02*
X12960539Y-13709436D01*
X12960539Y-13709436D02*
X12970063Y-13699912D01*
X13131968Y-13795150D02*
X13131968Y-13928484D01*
X13084348Y-13718960D02*
X13036729Y-13861817D01*
X13036729Y-13861817D02*
X13160539Y-13861817D01*
X13389110Y-13928484D02*
X13389110Y-13728484D01*
X13474825Y-13928484D02*
X13474825Y-13823722D01*
X13474825Y-13823722D02*
X13465301Y-13804674D01*
X13465301Y-13804674D02*
X13446253Y-13795150D01*
X13446253Y-13795150D02*
X13417682Y-13795150D01*
X13417682Y-13795150D02*
X13398634Y-13804674D01*
X13398634Y-13804674D02*
X13389110Y-13814198D01*
X13598634Y-13928484D02*
X13579587Y-13918960D01*
X13579587Y-13918960D02*
X13570063Y-13909436D01*
X13570063Y-13909436D02*
X13560539Y-13890388D01*
X13560539Y-13890388D02*
X13560539Y-13833246D01*
X13560539Y-13833246D02*
X13570063Y-13814198D01*
X13570063Y-13814198D02*
X13579587Y-13804674D01*
X13579587Y-13804674D02*
X13598634Y-13795150D01*
X13598634Y-13795150D02*
X13627206Y-13795150D01*
X13627206Y-13795150D02*
X13646253Y-13804674D01*
X13646253Y-13804674D02*
X13655777Y-13814198D01*
X13655777Y-13814198D02*
X13665301Y-13833246D01*
X13665301Y-13833246D02*
X13665301Y-13890388D01*
X13665301Y-13890388D02*
X13655777Y-13909436D01*
X13655777Y-13909436D02*
X13646253Y-13918960D01*
X13646253Y-13918960D02*
X13627206Y-13928484D01*
X13627206Y-13928484D02*
X13598634Y-13928484D01*
X13779587Y-13928484D02*
X13760539Y-13918960D01*
X13760539Y-13918960D02*
X13751015Y-13899912D01*
X13751015Y-13899912D02*
X13751015Y-13728484D01*
X13931968Y-13918960D02*
X13912920Y-13928484D01*
X13912920Y-13928484D02*
X13874825Y-13928484D01*
X13874825Y-13928484D02*
X13855777Y-13918960D01*
X13855777Y-13918960D02*
X13846253Y-13899912D01*
X13846253Y-13899912D02*
X13846253Y-13823722D01*
X13846253Y-13823722D02*
X13855777Y-13804674D01*
X13855777Y-13804674D02*
X13874825Y-13795150D01*
X13874825Y-13795150D02*
X13912920Y-13795150D01*
X13912920Y-13795150D02*
X13931968Y-13804674D01*
X13931968Y-13804674D02*
X13941491Y-13823722D01*
X13941491Y-13823722D02*
X13941491Y-13842769D01*
X13941491Y-13842769D02*
X13846253Y-13861817D01*
X14017682Y-13918960D02*
X14036730Y-13928484D01*
X14036730Y-13928484D02*
X14074825Y-13928484D01*
X14074825Y-13928484D02*
X14093872Y-13918960D01*
X14093872Y-13918960D02*
X14103396Y-13899912D01*
X14103396Y-13899912D02*
X14103396Y-13890388D01*
X14103396Y-13890388D02*
X14093872Y-13871341D01*
X14093872Y-13871341D02*
X14074825Y-13861817D01*
X14074825Y-13861817D02*
X14046253Y-13861817D01*
X14046253Y-13861817D02*
X14027206Y-13852293D01*
X14027206Y-13852293D02*
X14017682Y-13833246D01*
X14017682Y-13833246D02*
X14017682Y-13823722D01*
X14017682Y-13823722D02*
X14027206Y-13804674D01*
X14027206Y-13804674D02*
X14046253Y-13795150D01*
X14046253Y-13795150D02*
X14074825Y-13795150D01*
X14074825Y-13795150D02*
X14093872Y-13804674D01*
X14170063Y-14004674D02*
X14179587Y-13995150D01*
X14179587Y-13995150D02*
X14198634Y-13966579D01*
X14198634Y-13966579D02*
X14208158Y-13947531D01*
X14208158Y-13947531D02*
X14217682Y-13918960D01*
X14217682Y-13918960D02*
X14227206Y-13871341D01*
X14227206Y-13871341D02*
X14227206Y-13833246D01*
X14227206Y-13833246D02*
X14217682Y-13785627D01*
X14217682Y-13785627D02*
X14208158Y-13757055D01*
X14208158Y-13757055D02*
X14198634Y-13738008D01*
X14198634Y-13738008D02*
X14179587Y-13709436D01*
X14179587Y-13709436D02*
X14170063Y-13699912D01*
M02*
